<?xml version="1.0" encoding="UTF-8"?>
<svg width="36px" height="33px" viewBox="0 0 36 33" version="1.1" xmlns="http://www.w3.org/2000/svg" xmlns:xlink="http://www.w3.org/1999/xlink">
  <g>
    <path d="M6.95322875,28.8596288 L13.3784481,25.8691651 C13.5126841,25.8066882 13.6652807,25.7960515 13.8068864,25.8393011 C15.29499,26.2938016 16.8770747,26.529675 18.5,26.529675 C25.8669428,26.529675 31.7958333,21.6916177 31.7958333,15.7918833 C31.7958333,9.89136966 25.8674614,5.05409167 18.5,5.05409167 C11.1325386,5.05409167 5.20416667,9.89136966 5.20416667,15.7918833 C5.20416667,18.6884383 6.63508493,21.4093124 9.14770686,23.4191739 C9.36878855,23.5960185 9.43617161,23.9033371 9.30936514,24.1564601 L6.95322875,28.8596288 Z M4.00416667,15.7918833 C4.00416667,9.16866304 10.51749,3.85409167 18.5,3.85409167 C26.48251,3.85409167 32.9958333,9.16866304 32.9958333,15.7918833 C32.9958333,22.414301 26.4820058,27.729675 18.5,27.729675 C16.8386588,27.729675 15.2149975,27.499021 13.6785043,27.0531178 L5.89892693,30.6739349 C5.38364239,30.9137617 4.85472905,30.3693845 5.10930153,29.8612232 L8.02300043,24.0450839 C5.46839515,21.847418 4.00416667,18.9200147 4.00416667,15.7918833 Z M13.0625,13.6625 C12.7311292,13.6625 12.4625,13.3938708 12.4625,13.0625 C12.4625,12.7311292 12.7311292,12.4625 13.0625,12.4625 L20.9166667,12.4625 C21.2480375,12.4625 21.5166667,12.7311292 21.5166667,13.0625 C21.5166667,13.3938708 21.2480375,13.6625 20.9166667,13.6625 L13.0625,13.6625 Z M13.0625,17.2875 C12.7311292,17.2875 12.4625,17.0188708 12.4625,16.6875 C12.4625,16.3561292 12.7311292,16.0875 13.0625,16.0875 L24.5416667,16.0875 C24.8730375,16.0875 25.1416667,16.3561292 25.1416667,16.6875 C25.1416667,17.0188708 24.8730375,17.2875 24.5416667,17.2875 L13.0625,17.2875 Z M13.0625,20.9125 C12.7311292,20.9125 12.4625,20.6438708 12.4625,20.3125 C12.4625,19.9811292 12.7311292,19.7125 13.0625,19.7125 L24.5416667,19.7125 C24.8730375,19.7125 25.1416667,19.9811292 25.1416667,20.3125 C25.1416667,20.6438708 24.8730375,20.9125 24.5416667,20.9125 L13.0625,20.9125 Z"></path>
  </g>
</svg>
