<svg viewBox="0 0 839 504" xmlns="http://www.w3.org/2000/svg"><path d="M85.263 234.407V131.16h10.335c33.656 0 51.928 18.715 51.928 51.624 0 32.91-18.272 51.623-51.928 51.623H85.263zm0-208.43h5.526c27.246 0 44.555 17.746 44.555 48.397 0 30.653-17.309 48.72-44.555 48.72h-5.526V25.977zm127.331 156.807c0-39.685-38.466-55.172-73.725-56.786 32.054-1.935 59.944-20.648 59.944-52.592 0-40.33-33.018-56.139-80.778-56.139H0v.644C14.103 27.914 17.31 34.69 17.31 55.984v148.42c0 21.293-3.207 28.067-17.31 38.07v.644h121.883c52.567 0 90.711-16.456 90.711-60.334zM271.155 67.782c19.875 0 35.262-14.843 35.262-33.556 0-19.036-15.387-33.554-35.262-33.554-20.191 0-34.936 14.518-34.936 33.554 0 18.713 14.745 33.556 34.936 33.556M104.095 492.077H85.263v-209.72h17.874c46.475 0 67.95 40.333 67.95 104.216 0 66.141-21.475 105.504-66.992 105.504m1.924-217.783H0v.644C14.103 284.94 17.31 291.716 17.31 313.01v148.416c0 21.296-3.206 28.071-17.309 38.074v.644h107.622c78.211 0 135.91-35.815 135.91-113.571 0-76.464-57.378-112.28-137.513-112.28M472.788 456.682c12.951 29.63 43.123 46.69 77.26 46.69 35.9 0 65.712-20.007 75.326-54.206l-2.244-.967c-9.936 18.393-25.642 25.81-42.311 25.81-30.132 0-48.4-22.908-48.4-67.11 0-15.144 1.444-28.888 4.619-39.792 2.113-6.196 6.96-15.72 17.4-19.416 5.512-1.95 10.693-2.722 15.4-2.517 8.348.502 14.617 5.928 17.543 11.062 5.9 10.35 1.226 19.004-6.835 23.661-3.615 2.09-7.31 2.741-11.047 2.666l-.555.32c6.7 11.753 23.291 22.647 40.246 12.848 13.345-7.712 16.478-21.924 7.705-37.313-.374-.655-.793-1.247-1.205-1.848l.02-.02c-.053-.068-.11-.132-.164-.202a26.06 26.06 0 0 0-5.361-5.647c-16.413-14.38-43.093-15.684-64.054-13.324-.098.012-.199.022-.299.033a2.586 2.586 0 0 1-.113.012c-.051.007-.098.017-.149.023-45.977 5.472-79.505 36.297-79.505 85.586 0 12.503 2.404 23.775 6.723 33.651M805.53 457.876l-36.22-77.435 14.745-13.873c13.783-11.613 24.681-19.359 46.798-26.133v-.644h-3.467v-.05h-64.107v.644c6.731 1.936 10.898 7.097 10.898 13.551.319 5.485-3.206 12.582-11.54 20.006l-28.85 27.424c-8.33 7.421-13.458 8.712-22.114 8.712h-1.66V258.485H626.99v.645c15.068 7.74 18.912 12.903 18.912 35.166v170.682c0 21.292-.64 24.842-14.102 34.524v.642h92.315v-.642c-13.463-9.682-14.103-13.232-14.103-34.524v-48.723h3.525c5.77 0 8.01 2.261 10.898 8.39l23.4 52.914c4.486 9.034 5.448 17.746 3.845 22.585h86.547v-.642c-14.106-9.038-25.002-25.814-32.697-41.626M383.638 262.799h57.373c17.312 0 26.926 5.486 26.926 19.036 0 19.681-27.884 29.037-60.26 29.037-27.246 0-50.003-8.063-50.003-27.424 0-14.517 10.577-20.65 25.964-20.65M413.125 84.7c10.901 0 17.608 15.488 17.608 47.753 0 32.587-6.707 47.749-17.608 47.749-10.575 0-17.338-15.162-17.338-47.75 0-32.264 6.763-47.752 17.338-47.752m-5.447 231.661c53.209 0 103.854-19.036 103.854-64.208 0-31.94-25.323-48.397-62.826-48.397h-73.724c-8.653 0-13.142-4.192-13.142-10.97 0-6.452 4.808-10.323 12.824-13.228 10.896 3.871 23.397 5.806 38.461 5.806 48.401 0 75.648-21.615 75.648-52.911 0-15.259-6.883-28.096-19.75-37.096 12.583-.423 28.343-2.28 35.982-15.673 8.775-15.39 5.638-29.601-7.703-37.314-16.957-9.799-33.548 1.097-40.25 12.848l.555.32c3.738-.073 7.434.576 11.05 2.665 8.06 4.658 12.735 13.312 6.832 23.664-2.18 3.826-6.225 7.815-11.597 9.81-12.486-7.985-29.72-12.139-50.767-12.139-48.079 0-75.327 21.94-75.327 52.915 0 19.68 10.898 36.137 31.737 44.848-20.196 6.453-37.184 21.937-37.184 43.878 0 20.97 13.784 35.171 33.657 40.007-26.286.647-39.427 10.65-39.427 22.909 0 25.49 42.31 32.266 81.097 32.266M239.424 123.117v85.339c0 21.293-.643 24.843-14.103 34.524v.643h92.315v-.643c-13.463-9.68-14.106-13.23-14.106-34.524V87.304h-80.455v.644c14.746 9.357 16.349 12.581 16.349 35.17M442.326 465.621V342.958h-64.127s.017 16.113.017 38.698v52.993c0 27.424-9.295 38.392-22.758 38.392-12.501 0-18.912-10.647-18.912-23.229V342.958h-80.455v.848c14.744 9.36 16.347 12.398 16.347 34.982v68.443c0 30.005 15.385 56.14 50.966 56.14 27.245 0 47.44-16.13 54.812-45.17v41.944h79.17v-.644c-13.46-9.359-15.06-12.909-15.06-33.88"/></svg>