<?xml version="1.0" encoding="UTF-8"?>
<svg width="50px" height="50px" viewBox="0 0 50 50" version="1.1" xmlns="http://www.w3.org/2000/svg" xmlns:xlink="http://www.w3.org/1999/xlink">
  <g fill="#ffffff">
    <path d="M31.9079405,44.4466303 C29.9819165,44.4466303 28.1633279,43.9973549 26.5303096,43.2179598 C29.8490873,40.5594216 31.984122,36.4807825 31.984122,31.9079405 C31.984122,31.2867685 31.931381,30.67927 31.8551995,30.0776317 C35.1427232,28.2023953 37.6195979,25.0789548 38.6529313,21.3558293 C42.1299321,23.5865792 44.4466303,27.4776946 44.4466303,31.9079405 C44.4466303,38.8228746 38.8228746,44.4466303 31.9079405,44.4466303 M17.492061,44.4466303 C10.5771269,44.4466303 4.95337121,38.8228746 4.95337121,31.9079405 C4.95337121,27.4776946 7.26811609,23.5865792 10.7470702,21.3558293 C11.7784502,25.0789548 14.2572783,28.2023953 17.544802,30.0776317 C17.4686205,30.67927 17.4158795,31.2867685 17.4158795,31.9079405 C17.4158795,36.4807825 19.5509143,40.5594216 22.8696919,43.2179598 C21.2366736,43.9973549 19.418085,44.4466303 17.492061,44.4466303 M26.5303096,20.5998746 C28.1633279,19.8185261 29.9819165,19.3692507 31.9079405,19.3692507 C33.6757415,19.3692507 35.3575941,19.7423446 36.883177,20.4045375 C36.1194089,23.6002528 34.1347837,26.3193455 31.4449915,28.0441723 C30.6187155,25.0711413 28.8763084,22.4770643 26.5303096,20.5998746 M17.95501,28.0461256 C15.2652178,26.3193455 13.2805927,23.6002528 12.5168245,20.4045375 C14.0424074,19.7423446 15.7242601,19.3692507 17.492061,19.3692507 C19.418085,19.3692507 21.2366736,19.8185261 22.8696919,20.5998746 C20.5217397,22.4770643 18.7793326,25.0711413 17.95501,28.0461256 M24.7000008,30.0307508 C22.9321998,30.0307508 21.2503472,29.6576569 19.7247643,28.9954641 C20.4436049,25.9872724 22.2446132,23.3990555 24.7000008,21.6644619 C27.153435,23.3990555 28.9544433,25.985319 29.6732839,28.9954641 C28.1477009,29.6576569 26.4658483,30.0307508 24.7000008,30.0307508 M30.0307508,31.9079405 C30.0307508,36.1389426 27.9191565,39.8796484 24.7000008,42.1514191 C21.480845,39.8796484 19.3692507,36.1389426 19.3692507,31.9079405 C19.3692507,31.5914944 19.3946446,31.2828617 19.4161316,30.9722757 C21.0550101,31.6168882 22.8325779,31.984122 24.7000008,31.984122 C26.5654703,31.984122 28.3430381,31.6168882 29.9819165,30.9722757 C30.005357,31.2828617 30.0307508,31.5914944 30.0307508,31.9079405 M12.161311,17.492061 C12.161311,10.5771269 17.7850667,4.95337121 24.7000008,4.95337121 C31.6129815,4.95337121 37.2386906,10.5771269 37.2386906,17.492061 C37.2386906,17.8065538 37.2152501,18.1171398 37.1918096,18.4277258 C35.5509778,17.7831133 33.77341,17.4158795 31.9079405,17.4158795 C29.2826096,17.4158795 26.8252686,18.12886 24.7000008,19.3536238 C22.5747329,18.12886 20.1154385,17.4158795 17.492061,17.4158795 C15.6265915,17.4158795 13.8470703,17.7831133 12.2081919,18.4277258 C12.1847514,18.1171398 12.161311,17.8065538 12.161311,17.492061 M39.0631393,19.3223698 C39.1393207,18.7207315 39.1920618,18.113233 39.1920618,17.492061 C39.1920618,9.50081938 32.6912424,3 24.7000008,3 C16.7087591,3 10.2079398,9.50081938 10.2079398,17.492061 C10.2079398,18.113233 10.2587274,18.7207315 10.3368623,19.3223698 C5.96131075,21.8187782 3,26.5205427 3,31.9079405 C3,39.8991821 9.50081938,46.4000015 17.492061,46.4000015 C20.1154385,46.4000015 22.5747329,45.687021 24.7000008,44.4622573 C26.8252686,45.687021 29.2826096,46.4000015 31.9079405,46.4000015 C39.8991821,46.4000015 46.4000015,39.8991821 46.4000015,31.9079405 C46.4000015,26.5205427 43.4386908,21.8187782 39.0631393,19.3223698"></path>
  </g>
</svg>
