<?xml version="1.0" encoding="UTF-8"?>
<svg width="50px" height="50px" viewBox="0 0 50 50" version="1.1" xmlns="http://www.w3.org/2000/svg" xmlns:xlink="http://www.w3.org/1999/xlink">
  <g fill="#ffffff">
    <path d="M23.3902632,24.003884 C23.7260129,24.003884 24.0436684,24.0722402 24.3392086,24.1828165 L22.6564389,25.8655862 C22.2382595,26.2656712 22.2201652,26.9271183 22.6182398,27.3452976 C23.0143039,27.7634769 23.6797719,27.7795608 24.0979513,27.3814862 C24.1059932,27.3734443 24.1160455,27.3633919 24.1260979,27.3533395 L25.8249515,25.654486 C25.9415592,25.9520367 26.0058944,26.277734 26.0058944,26.6175047 C26.0058944,28.0730905 24.8478594,29.233136 23.3902632,29.233136 C21.9326669,29.233136 20.7766424,28.0730905 20.7766424,26.6175047 C20.7766424,25.161919 21.9326669,24.003884 23.3902632,24.003884 L23.3902632,24.003884 Z M23.3902632,16.1630216 C25.9053706,16.1630216 28.2053569,17.0416003 30.0067447,18.5152803 L25.8892867,22.6307278 C25.1655148,22.1743494 24.3050304,21.9129873 23.3902632,21.9129873 C20.804789,21.9129873 18.6857457,24.0320306 18.6857457,26.6175047 C18.6857457,29.2049893 20.804789,31.3240327 23.3902632,31.3240327 C25.9757373,31.3240327 28.0967911,29.2049893 28.0967911,26.6175047 C28.0967911,25.700727 27.8193452,24.8442636 27.3609563,24.1184812 L31.4764038,20.0010232 C32.9541048,21.8044215 33.8467568,24.0983764 33.8467568,26.6175047 C33.8467568,32.4056696 29.178428,37.0739984 23.3902632,37.0739984 C17.6041088,37.0739984 12.9337695,32.4056696 12.9337695,26.6175047 C12.9337695,20.8313504 17.6041088,16.1630216 23.3902632,16.1630216 L23.3902632,16.1630216 Z M43.1592888,8.3201487 L45.4472122,8.3201487 L40.2179601,13.5473903 L37.9300367,13.5473903 L43.1592888,8.3201487 Z M41.6896297,4.56256619 L41.6896297,6.83239533 L36.4603776,12.0616474 L36.4603776,9.78980778 L41.6896297,4.56256619 Z M42.7008999,1 C42.4375273,1.01005239 42.1862176,1.12263913 41.9992432,1.31162402 L34.6790945,8.62976224 C34.4840782,8.82477857 34.3714915,9.0901616 34.369481,9.36559702 L34.369481,14.152544 L31.4764038,17.0436107 C29.2930252,15.1959819 26.4703147,14.0701145 23.3902632,14.0701145 C16.4742204,14.0701145 10.8428729,19.701462 10.8428729,26.6175047 C10.8428729,33.5355579 16.4742204,39.1669055 23.3902632,39.1669055 C30.3063059,39.1669055 35.9376535,33.5355579 35.9376535,26.6175047 C35.9376535,23.5334322 34.8178175,20.7006694 32.9641572,18.5152803 L35.8391401,15.6382869 L38.0446339,15.6382869 C40.3385888,18.6962233 41.6896297,22.4980363 41.6896297,26.6175047 C41.6896297,36.7362382 33.5089966,44.9168713 23.3902632,44.9168713 C13.2735402,44.9168713 5.09089664,36.7362382 5.09089664,26.6175047 C5.09089664,16.5007818 13.2735402,8.3201487 23.3902632,8.3201487 C26.0320306,8.3201487 28.5431171,8.88308241 30.8069148,9.88832118 C31.3437123,10.1054528 31.9548975,9.84610115 32.1700186,9.31131413 C32.3770977,8.80065284 32.1519243,8.21761435 31.6573468,7.97635705 C29.1301765,6.85652106 26.3295813,6.22925207 23.3902632,6.22925207 C12.1416414,6.22925207 3,15.3708934 3,26.6175047 C3,37.8661266 12.1416414,47.0077679 23.3902632,47.0077679 C34.638885,47.0077679 43.7805263,37.8661266 43.7805263,26.6175047 C43.7805263,22.5804659 42.6064074,18.8108205 40.5778356,15.6382869 L40.6421709,15.6382869 C40.9196168,15.6362765 41.1849998,15.5257002 41.3780057,15.3286734 L48.6981544,8.00852469 C49.1042708,7.59838727 49.1002499,6.93694016 48.688102,6.5308237 C48.4950961,6.33982833 48.2337341,6.23126255 47.9623196,6.22925207 L43.7805263,6.22925207 L43.7805263,2.04544832 C43.7805263,1.46844127 43.3120851,1 42.735078,1 L42.7008999,1 Z"></path>

  </g>
</svg>
