<?xml version="1.0" encoding="UTF-8"?>
<svg width="28px" height="38px" viewBox="0 0 28 38" version="1.1" xmlns="http://www.w3.org/2000/svg" xmlns:xlink="http://www.w3.org/1999/xlink">
    <!-- Generator: Sketch 45.2 (43514) - http://www.bohemiancoding.com/sketch -->
    <title>improvement-icon-1</title>
    <desc>Created with Sketch.</desc>
    <defs></defs>
    <g id="Page-1" stroke="none" stroke-width="1" fill="none" fill-rule="evenodd">
        <g id="improvement-icon-1" fill-rule="nonzero" fill="#FFFFFF">
            <g id="Group">
                <path d="M27.0130435,37.173913 C26.8478261,37.173913 26.7652174,37.173913 26.6,37.0913043 L14.0434783,28.9130435 L1.48695652,37.0913043 C1.23913043,37.2565217 0.991304348,37.2565217 0.743478261,37.0913043 C0.495652174,36.926087 0.330434783,36.6782609 0.330434783,36.4304348 L0.330434783,1.40434783 C0.330434783,0.991304348 0.660869565,0.660869565 1.07391304,0.660869565 L26.9304348,0.660869565 C27.3434783,0.660869565 27.673913,0.991304348 27.673913,1.40434783 L27.673913,36.4304348 C27.673913,36.6782609 27.5086957,36.926087 27.2608696,37.0913043 C27.2608696,37.173913 27.0956522,37.173913 27.0130435,37.173913 Z M14.0434783,27.2608696 C14.2086957,27.2608696 14.2913043,27.2608696 14.4565217,27.3434783 L26.1869565,34.9434783 L26.1869565,2.14782609 L1.9,2.14782609 L1.9,35.026087 L13.6304348,27.426087 C13.7956522,27.3434783 13.8782609,27.2608696 14.0434783,27.2608696 Z" id="Shape"></path>
                <path d="M19.3304348,24.2043478 C19.1652174,24.2043478 19,24.1217391 18.9173913,24.0391304 L14.0434783,20.5695652 L9.16956522,24.0391304 C8.92173913,24.2043478 8.59130435,24.2043478 8.26086957,24.0391304 C8.01304348,23.873913 7.84782609,23.5434783 7.93043478,23.2130435 L9.33478261,17.5956522 L5.12173913,14.126087 C4.87391304,13.9608696 4.79130435,13.5478261 4.87391304,13.3 C4.95652174,12.9695652 5.28695652,12.8043478 5.6173913,12.8043478 L11.1521739,12.8043478 L13.2173913,7.18695652 C13.4652174,6.60869565 14.4565217,6.60869565 14.6217391,7.18695652 L16.6869565,12.8043478 L22.2217391,12.8043478 C22.5521739,12.8043478 22.8,12.9695652 22.9652174,13.3 C23.0478261,13.6304348 22.9652174,13.9608696 22.7173913,14.126087 L18.5043478,17.5956522 L19.9086957,23.2130435 C19.9913043,23.5434783 19.826087,23.873913 19.5782609,24.0391304 C19.6608696,24.2043478 19.4956522,24.2043478 19.3304348,24.2043478 Z M14.0434783,18.9173913 C14.2086957,18.9173913 14.373913,19 14.4565217,19.0826087 L18.0913043,21.726087 L17.1,17.6782609 C17.0173913,17.4304348 17.1,17.1 17.3478261,16.9347826 L20.3217391,14.4565217 L16.3565217,14.4565217 C16.026087,14.4565217 15.7782609,14.2913043 15.6130435,13.9608696 L14.0434783,9.66521739 L12.473913,13.8782609 C12.3913043,14.2086957 12.0608696,14.373913 11.7304348,14.373913 L7.76521739,14.373913 L10.7391304,16.8521739 C10.9869565,17.0173913 11.0695652,17.3478261 10.9869565,17.5956522 L9.99565217,21.6434783 L13.6304348,19 C13.7130435,19 13.8782609,18.9173913 14.0434783,18.9173913 Z" id="Shape"></path>
            </g>
        </g>
    </g>
</svg>