<?xml version="1.0" encoding="UTF-8"?>
<svg width="50px" height="50px" viewBox="0 0 50 50" version="1.1" xmlns="http://www.w3.org/2000/svg" xmlns:xlink="http://www.w3.org/1999/xlink">
  <g fill="#ffffff">
    <path d="M36.1099615,7.09765314 C41.2919259,7.81779711 45.2251196,12.364815 45.2251196,18.3258154 C45.2251196,20.4950061 44.4415589,22.845609 42.9851209,25.3565557 C41.2640118,28.3238041 38.6450223,31.4496723 35.366807,34.6447458 C33.2507822,36.707104 30.9869045,38.6751921 28.7231862,40.484237 C27.9308266,41.1174492 27.1946685,41.685873 26.5332941,42.1812473 C26.3011388,42.3551333 26.0946861,42.5076263 25.9162614,42.6376892 C25.8081153,42.7165224 25.7326663,42.7708377 25.6922412,42.7995962 C25.3452144,43.0464719 24.8799053,43.0464719 24.5328785,42.7995962 C24.4924534,42.7708377 24.4170043,42.7165224 24.3088583,42.6376892 C24.1304336,42.5076263 23.9239808,42.3551333 23.6918256,42.1812473 C23.0304512,41.685873 22.294293,41.1174492 21.5019334,40.484237 C19.2382152,38.6751921 16.9743374,36.707104 14.8583127,34.6447458 C11.5800973,31.4496723 8.96110787,28.3238041 7.23999871,25.3565557 C5.78356071,22.845609 5,20.4950061 5,18.3258154 C5,12.364815 8.93319372,7.81779711 14.1151582,7.09765314 C18.7164224,6.4582098 22.9082353,8.9808478 25.1125598,14.0265756 C27.3168843,8.9808478 31.5086973,6.4582098 36.1099615,7.09765314 Z M25.3343112,40.580485 C25.9794594,40.0972642 26.6991408,39.5415629 27.4746084,38.9218499 C29.6903963,37.1511084 31.9060248,35.2249656 33.9708725,33.2124864 C37.1298614,30.1336156 39.6397512,27.1379621 41.2550851,24.3530736 C42.5493838,22.1216605 43.2251196,20.0945213 43.2251196,18.3258154 C43.2251196,13.3602788 40.0252075,9.66098034 35.8346647,9.07861545 C31.4797697,8.47341034 27.5593865,11.4039032 26.083594,17.4014003 C25.8338975,18.4161463 24.3912222,18.4161463 24.1415256,17.4014003 C22.6657332,11.4039032 18.74535,8.47341034 14.3904549,9.07861545 C10.1999121,9.66098034 7,13.3602788 7,18.3258154 C7,20.0945213 7.67573586,22.1216605 8.9700345,24.3530736 C10.5853684,27.1379621 13.0952583,30.1336156 16.2542472,33.2124864 C18.3190949,35.2249656 20.5347233,37.1511084 22.7505113,38.9218499 C23.5259789,39.5415629 24.2456602,40.0972642 24.8908084,40.580485 C24.969438,40.6393791 25.0434082,40.6945549 25.1125598,40.7459406 C25.1817115,40.6945549 25.2556817,40.6393791 25.3343112,40.580485 Z"></path>
  </g>
</svg>
