<?xml version="1.0" encoding="UTF-8"?>
<svg width="50px" height="50px" viewBox="0 0 50 50" version="1.1" xmlns="http://www.w3.org/2000/svg" xmlns:xlink="http://www.w3.org/1999/xlink">
  <g fill="#ffffff">
    <path d="M34.4193934,16.8919415 L36.9188175,8.14483171 L43.1665031,16.8919415 L34.4193934,16.8919415 Z M33.8736829,18.8159208 L43.1612559,18.8159208 L27.9023506,40.0461584 L33.8736829,18.8159208 Z M17.1245681,18.8159208 L23.0959003,40.0461584 L7.83699501,18.8159208 L17.1245681,18.8159208 Z M18.1950002,15.5451559 L15.7305576,6.92223028 L23.7378098,6.92223028 L18.1950002,15.5451559 Z M27.2604411,6.92223028 L35.2659443,6.92223028 L32.8032507,15.5451559 L27.2604411,6.92223028 Z M19.6169959,16.8919415 L25.4991255,7.74079604 L31.3812551,16.8919415 L19.6169959,16.8919415 Z M31.8744934,18.8159208 L25.4991255,41.4856448 L19.1237575,18.8159208 L31.8744934,18.8159208 Z M14.0794335,8.14483171 L16.5788576,16.8919415 L7.82999872,16.8919415 L14.0794335,8.14483171 Z M45.9965019,17.8626765 C45.9965019,17.8591784 45.9982509,17.8574293 45.9982509,17.8539311 L45.9982509,17.8539311 C45.9982509,17.6667804 45.9317862,17.5023676 45.8390854,17.3554456 C45.8268419,17.3362058 45.8320891,17.3134679 45.8198456,17.2942281 L37.3246022,5.40228659 C37.3053624,5.37605051 37.2738791,5.363807 37.2528902,5.33931999 C37.1916727,5.26935711 37.125208,5.20988866 37.0430016,5.15916556 C36.9975257,5.13118041 36.9537989,5.10844247 36.9030758,5.08570453 C36.8698434,5.07346103 36.8418583,5.04722495 36.8051278,5.03673051 C36.7491575,5.01923979 36.6914381,5.02798515 36.6354678,5.02098887 C36.6039845,5.01923979 36.5742502,5 36.5410179,5 L14.455484,5 C14.4240007,5 14.3960155,5.01749072 14.3645322,5.02098887 C14.3068128,5.02798515 14.2490935,5.01923979 14.1931232,5.03673051 C14.1563926,5.04722495 14.1284075,5.07346103 14.093426,5.08570453 C14.044452,5.10844247 14.0007252,5.13118041 13.9535003,5.15916556 C13.873043,5.20988866 13.8065782,5.26935711 13.7453607,5.33931999 C13.7226228,5.363807 13.6911395,5.37605051 13.6736487,5.40228659 L5.17840536,17.2942281 C5.16441278,17.3134679 5.16966,17.3362058 5.15916556,17.3554456 C5.06646474,17.5023676 5,17.6667804 5,17.8539311 L5,17.8539311 C5,17.8574293 5.00174907,17.8591784 5.00174907,17.8626765 C5.00349814,18.0463291 5.06821381,18.2072437 5.15916556,18.3524167 C5.17140907,18.3734056 5.16616185,18.3961435 5.18015443,18.4153833 L24.7172902,45.5994625 C24.7242865,45.6064588 24.7330319,45.6099569 24.7400282,45.6187023 C24.8152383,45.7166503 24.9114372,45.7953586 25.0181306,45.8583252 C25.0478649,45.8758159 25.07585,45.8915575 25.1073333,45.9055501 C25.2297684,45.9597713 25.3591997,46 25.4991255,46 C25.6390512,46 25.7684826,45.9597713 25.8909176,45.9055501 C25.9224009,45.8915575 25.9503861,45.8758159 25.9801203,45.8583252 C26.0868137,45.7953586 26.1830127,45.7166503 26.2582228,45.6187023 C26.26347,45.6099569 26.2739644,45.6064588 26.2809607,45.5994625 L45.8180965,18.4153833 C45.8320891,18.3961435 45.8268419,18.3734056 45.8390854,18.3524167 C45.9300371,18.2072437 45.9947528,18.0463291 45.9965019,17.8626765 L45.9965019,17.8626765 Z"></path>
  </g>
</svg>
