<?xml version="1.0" encoding="UTF-8"?>
<svg width="50px" height="50px" viewBox="0 0 50 50" version="1.1" xmlns="http://www.w3.org/2000/svg" xmlns:xlink="http://www.w3.org/1999/xlink">
  <g fill="#ffffff">
    <path d="M15.9204395,25.533855 C14.0862419,25.7824858 11.7155253,24.4259212 9.46040012,21.7673162 C6.43321085,18.2014268 5.00031219,8.66621684 7.26198025,2.7994019 C9.9467569,4.69902859 12.8365449,5.56923646 15.4253588,6.3478435 C18.4939865,7.2703947 21.1438676,8.06863048 23.0107798,10.2670504 C24.3673444,11.8635219 25.8787581,14.2189718 25.3814964,16.3694103 C25.0521696,17.7914041 23.8177394,19.0411011 21.8090641,20.1228633 C19.5146815,16.5024496 16.5485594,12.6901104 12.6358955,9.17002139 C12.1931582,8.76872253 11.5061519,8.80361808 11.0961292,9.25071736 C10.6948303,9.69781664 10.7297259,10.3891848 11.1790061,10.7904837 C14.9280972,14.1666285 17.8200662,17.8721001 20.0272099,21.3834651 C18.8734757,23.9046689 17.4951013,25.3092149 15.9204395,25.533855 L15.9204395,25.533855 Z M30.7510497,22.7858302 C30.7532307,21.5753907 31.6408863,20.2602645 33.1261283,19.2701032 C34.6767995,18.2363224 36.3125286,17.8132138 38.0420394,17.3661145 C39.8609702,16.8972055 41.8827313,16.3737722 44.0026362,15.0673699 C45.1432846,19.2766461 43.7692722,25.7323235 41.6101098,28.0070774 C40.3996703,29.2829461 38.5022246,30.534824 36.7901615,30.2054973 C35.6320653,29.9830381 34.6680756,29.0168675 33.8829257,27.413853 C35.3681677,25.7083328 37.1522028,24.1249471 39.2437551,23.0802614 C39.7824552,22.8098209 40.0005524,22.1555293 39.7322928,21.6168291 C39.4618523,21.0759481 38.8097416,20.8643938 38.2688605,21.1282914 C36.0028305,22.2623969 34.092299,23.9199357 32.4914655,25.7039709 C31.592905,24.9733452 30.7466878,23.9831839 30.7510497,22.7858302 L30.7510497,22.7858302 Z M32.7815347,47.8190279 L23.4491551,47.8190279 L19.8134747,36.9141674 L36.4172152,36.9141674 L32.7815347,47.8190279 Z M36.3801387,32.3472119 C36.6920177,32.4082791 37.0148016,32.4366317 37.3397664,32.4366317 C39.2830126,32.4366317 41.4072794,31.3897651 43.1913146,29.5097672 C46.126903,26.4171487 47.7909847,17.8153948 45.5424025,12.9169315 C45.4071822,12.6181383 45.1367417,12.3956791 44.8183197,12.3149832 C44.5020788,12.2364682 44.1596662,12.3040783 43.8935876,12.5025468 C41.6842628,14.1731714 39.5556341,14.7227763 37.4967964,15.2549335 C35.6669608,15.7260235 33.773877,16.2167422 31.9156888,17.4555344 C29.793603,18.8709853 28.5744396,20.8120504 28.5700776,22.7792873 C28.5657157,23.9810029 29.0455295,25.6974279 31.0978243,27.3789574 C29.6496588,29.2698602 28.5286392,31.1716679 27.7740228,32.6569099 C26.9627012,30.1553349 25.4687353,26.2950143 22.9780652,22.0028612 C25.5123547,20.6179439 27.0368542,18.892795 27.5057632,16.86231 C28.068454,14.4261641 27.1175502,11.7304826 24.6726805,8.85596141 C22.3892027,6.16464184 19.3118511,5.23990967 16.0556597,4.2606532 C13.1680527,3.39044534 10.1823019,2.49406581 7.54332565,0.260750379 C7.28815192,0.0448341416 6.95446318,-0.0467666864 6.63167931,0.0230244207 C6.30671447,0.0862726114 6.02973102,0.291283988 5.874882,0.583534249 C2.46384164,7.03703068 4.06685613,18.7837464 7.79849939,23.1805861 C10.3218841,26.1532511 13.0110227,27.7475417 15.4580734,27.7475417 C15.7176091,27.7475417 15.9727828,27.7300939 16.2279565,27.6930174 C18.2475367,27.4051291 19.9639617,26.0289357 21.348879,23.5993328 C24.1012658,28.4694435 25.5210786,32.6874435 26.114303,34.7331953 L18.302061,34.7331953 C17.9509245,34.7331953 17.6215977,34.9011302 17.4187673,35.1846566 C17.211575,35.4703639 17.1548697,35.8367672 17.2660993,36.168275 L21.6280434,49.2541075 C21.7785305,49.6990259 22.1950962,50 22.6640052,50 L33.5688657,50 C34.0377747,50 34.4543403,49.6990259 34.6026464,49.2541075 L38.9645906,36.168275 C39.0758202,35.8367672 39.0212959,35.4703639 38.8141036,35.1846566 C38.6090922,34.9011302 38.2819464,34.7331953 37.9308099,34.7331953 L29.1938356,34.7331953 C29.8132317,33.4093453 30.888451,31.3635934 32.4042266,29.2764031 C33.6866382,31.3701364 35.2176806,32.1247527 36.3801387,32.3472119 L36.3801387,32.3472119 Z"></path>
  </g>
</svg>
