<?xml version="1.0" encoding="UTF-8"?>
<svg width="39px" height="39px" viewBox="0 0 39 39" version="1.1" xmlns="http://www.w3.org/2000/svg" xmlns:xlink="http://www.w3.org/1999/xlink">
    <!-- Generator: Sketch 45.2 (43514) - http://www.bohemiancoding.com/sketch -->
    <title>motivation-icon-1</title>
    <desc>Created with Sketch.</desc>
    <defs></defs>
    <g id="Page-1" stroke="none" stroke-width="1" fill="none" fill-rule="evenodd">
        <g id="motivation-icon-1" fill-rule="nonzero" fill="#FFFFFF">
            <path d="M33.6600423,0.2 C31.0088795,0.2 28.9200846,2.36913319 28.9200846,4.93995772 C28.9200846,6.70739958 29.8841438,8.23382664 31.3302326,9.0372093 L27.3936575,20.1238901 C27.1526427,20.0435518 26.8312896,20.0435518 26.5902748,20.0435518 C25.4655391,20.0435518 24.3408034,20.4452431 23.5374207,21.1682875 L19.5205074,17.7940803 C19.9221987,17.0710359 20.2435518,16.2676533 20.2435518,15.3839323 C20.2435518,12.7327696 18.0744186,10.6439746 15.5035941,10.6439746 C12.9327696,10.6439746 10.7636364,12.8131078 10.7636364,15.3839323 C10.7636364,16.9103594 11.4866808,18.1957717 12.5310782,19.0794926 L6.74672304,29.0414376 C6.26469345,28.8807611 5.70232558,28.7200846 5.13995772,28.7200846 C2.48879493,28.7200846 0.4,30.8892178 0.4,33.4600423 C0.4,36.0308668 2.56913319,38.2 5.13995772,38.2 C7.71078224,38.2 9.87991543,36.0308668 9.87991543,33.4600423 C9.87991543,31.9336152 9.15687104,30.648203 8.11247357,29.764482 L13.8164905,19.7221987 C14.2985201,19.8828753 14.8608879,20.0435518 15.4232558,20.0435518 C16.5479915,20.0435518 17.6727273,19.6418605 18.4761099,18.9188161 L22.4930233,22.2930233 C22.0913319,23.0160677 21.7699789,23.8194503 21.7699789,24.7031712 C21.7699789,27.354334 23.9391121,29.443129 26.5099366,29.443129 C29.0807611,29.443129 31.2498943,27.2739958 31.2498943,24.7031712 C31.2498943,22.9357294 30.2858351,21.4093023 28.8397463,20.5255814 L32.7763214,9.5192389 C33.0173362,9.59957717 33.3386892,9.59957717 33.579704,9.59957717 C36.2308668,9.59957717 38.3196617,7.43044397 38.3196617,4.85961945 C38.4,2.36913319 36.3112051,0.2 33.6600423,0.2 Z M5.13995772,36.6735729 C3.37251586,36.6735729 2.00676533,35.2274841 2.00676533,33.5403805 C2.00676533,31.853277 3.45285412,30.4071882 5.13995772,30.4071882 C6.82706131,30.4071882 8.27315011,31.853277 8.27315011,33.5403805 C8.27315011,35.2274841 6.90739958,36.6735729 5.13995772,36.6735729 Z M15.4232558,18.4367865 C13.655814,18.4367865 12.2900634,16.9906977 12.2900634,15.3035941 C12.2900634,13.6164905 13.7361522,12.0900634 15.4232558,12.0900634 C17.1103594,12.0900634 18.5564482,13.5361522 18.5564482,15.2232558 C18.5564482,16.9103594 17.1906977,18.4367865 15.4232558,18.4367865 Z M26.5902748,27.9167019 C24.822833,27.9167019 23.4570825,26.4706131 23.4570825,24.7835095 C23.4570825,23.0964059 24.9031712,21.6503171 26.5902748,21.6503171 C28.3577167,21.6503171 29.7234672,23.0964059 29.7234672,24.7835095 C29.7234672,26.4706131 28.2773784,27.9167019 26.5902748,27.9167019 Z M33.6600423,8.15348837 C31.8926004,8.15348837 30.5268499,6.70739958 30.5268499,5.02029598 C30.5268499,3.33319239 31.9729387,1.88710359 33.6600423,1.88710359 C35.4274841,1.88710359 36.7932347,3.33319239 36.7932347,5.02029598 C36.7932347,6.70739958 35.4274841,8.15348837 33.6600423,8.15348837 Z" id="Shape"></path>
        </g>
    </g>
</svg>