<?xml version="1.0" encoding="utf-8"?>
<!-- Generator: Adobe Illustrator 21.1.0, SVG Export Plug-In . SVG Version: 6.00 Build 0)  -->
<!DOCTYPE svg PUBLIC "-//W3C//DTD SVG 1.1//EN" "http://www.w3.org/Graphics/SVG/1.1/DTD/svg11.dtd">
<svg version="1.1" id="Layer_1" xmlns="http://www.w3.org/2000/svg" xmlns:xlink="http://www.w3.org/1999/xlink" x="0px" y="0px"
	 viewBox="0 0 50 50" style="enable-background:new 0 0 50 50;" xml:space="preserve">
<style type="text/css">
	.st0{fill:#FFFFFF;}
</style>
<path class="st0" d="M42.8,1.2c-3.3,0-5.9,2.7-5.9,5.9c0,2.2,1.2,4.1,3,5.1L35,26c-0.3-0.1-0.7-0.1-1-0.1c-1.4,0-2.8,0.5-3.8,1.4
	l-5-4.2c0.5-0.9,0.9-1.9,0.9-3c0-3.3-2.7-5.9-5.9-5.9s-5.9,2.7-5.9,5.9c0,1.9,0.9,3.5,2.2,4.6L9.3,37.1c-0.6-0.2-1.3-0.4-2-0.4
	c-3.3,0-5.9,2.7-5.9,5.9s2.7,5.9,5.9,5.9s5.9-2.7,5.9-5.9c0-1.9-0.9-3.5-2.2-4.6l7.1-12.5c0.6,0.2,1.3,0.4,2,0.4
	c1.4,0,2.8-0.5,3.8-1.4l5,4.2c-0.5,0.9-0.9,1.9-0.9,3c0,3.3,2.7,5.9,5.9,5.9s5.9-2.7,5.9-5.9c0-2.2-1.2-4.1-3-5.2l4.9-13.7
	c0.3,0.1,0.7,0.1,1,0.1c3.3,0,5.9-2.7,5.9-5.9C48.7,3.9,46.1,1.2,42.8,1.2z M7.3,46.6c-2.2,0-3.9-1.8-3.9-3.9s1.8-3.9,3.9-3.9
	s3.9,1.8,3.9,3.9S9.5,46.6,7.3,46.6z M20.1,23.9c-2.2,0-3.9-1.8-3.9-3.9S18,16,20.1,16s3.9,1.8,3.9,3.9S22.3,23.9,20.1,23.9z
	 M34,35.7c-2.2,0-3.9-1.8-3.9-3.9s1.8-3.9,3.9-3.9c2.2,0,3.9,1.8,3.9,3.9S36.1,35.7,34,35.7z M42.8,11.1c-2.2,0-3.9-1.8-3.9-3.9
	s1.8-3.9,3.9-3.9c2.2,0,3.9,1.8,3.9,3.9S45,11.1,42.8,11.1z"/>
</svg>
