<?xml version="1.0" encoding="UTF-8"?>
<svg width="50px" height="50px" viewBox="0 0 50 50" version="1.1" xmlns="http://www.w3.org/2000/svg" xmlns:xlink="http://www.w3.org/1999/xlink">
  <g fill="#ffffff">
    <path d="M38.4137909,8.00173672 C35.051551,5.06044566 29.9270336,5.40112886 26.9928772,8.75623406 L14.2163655,23.4091789 C14.0326463,23.6250044 13.9416785,23.8979077 13.9648664,24.1725947 C13.9880542,24.4330122 14.1111283,24.6702418 14.3126843,24.8396916 C14.712229,25.1750238 15.423918,25.1250807 15.748548,24.7451565 L28.5286271,10.0904279 C30.7296903,7.57008576 34.5860101,7.32215401 37.1241891,9.53748663 C39.6588007,11.7510356 39.9263529,15.6055716 37.7199387,18.1330486 C37.6539425,18.1990448 37.628971,18.2543389 37.58973,18.3292535 L37.5469216,18.3952498 L18.1832735,40.548576 C17.4983397,41.3690696 16.4638044,41.8702841 15.345436,41.9202272 C14.2235002,42.0201134 13.1996669,41.6526749 12.3327977,40.8821245 C10.7292678,39.4676649 10.6811084,37.0668294 12.2168583,35.2974172 C12.2204257,35.2920661 12.2239931,35.2884988 12.2275604,35.2849314 L12.2275604,35.2546088 L12.3042587,35.1654247 L27.0463877,18.2882289 C27.4940918,17.7709612 28.0666536,17.4534658 28.6142439,17.4177922 C29.0530295,17.3874696 29.4811131,17.5444336 29.8449842,17.8690637 C30.8420622,18.7626882 30.4335991,19.9559712 29.7825553,20.7051175 L21.7167469,29.9517232 C21.5330277,30.1675487 21.4420599,30.4386683 21.4652478,30.7133553 C21.4884356,30.9737728 21.6115097,31.2110025 21.8130657,31.3822359 C22.0342422,31.5695225 22.321415,31.6515719 22.5800488,31.6355187 C22.8404663,31.6141145 23.0759123,31.4892568 23.2471457,31.2894845 L31.3183053,22.0393114 C32.1405825,21.0886091 32.5508293,19.9648896 32.4705636,18.8732764 C32.3992163,17.9029536 31.9515122,17.0396517 31.1756107,16.3761221 C30.4353828,15.7411314 29.5792156,15.4307708 28.7123463,15.4307708 C27.5797085,15.4307708 26.4310175,15.962308 25.5088541,17.0004107 L10.4206909,34.3110412 C10.3885846,34.3431475 10.3653968,34.3823885 10.3439926,34.4198458 C10.3047516,34.4822747 10.2601596,34.5607567 10.1888123,34.6321039 C8.35875491,37.2166586 8.6619808,40.4540409 10.9575791,42.4624664 C12.0723801,43.4541934 13.5171623,44 15.026157,44 L15.4185669,44 C17.0452846,43.9179506 18.5435772,43.1812901 19.6298393,41.9273619 L39.2128803,19.5100508 C39.2681744,19.4547567 39.2895786,19.419083 39.3270359,19.3120621 L39.38233,19.212176 C42.1666571,15.8338829 41.7421409,10.9091378 38.4137909,8.00173672"></path>
  </g>
</svg>
