<?xml version="1.0" encoding="UTF-8"?>
<svg width="36px" height="33px" viewBox="0 0 36 33" version="1.1" xmlns="http://www.w3.org/2000/svg" xmlns:xlink="http://www.w3.org/1999/xlink">
  <g id="article" fill-rule="nonzero" fill="#000000">
    <path d="M28.9375,10.1130501 L22.0536165,3.22916667 L7.22916667,3.22916667 L7.22916667,29.7708333 L28.9375,29.7708333 L28.9375,10.1130501 Z M29.5625,31.0208333 L6.60416667,31.0208333 C6.2589887,31.0208333 5.97916667,30.7410113 5.97916667,30.3958333 L5.97916667,2.60416667 C5.97916667,2.2589887 6.2589887,1.97916667 6.60416667,1.97916667 L22.3125,1.97916667 C22.4782603,1.97916667 22.6372315,2.04501469 22.7544417,2.16222493 L30.0044417,9.41222493 C30.121652,9.52943516 30.1875,9.68840636 30.1875,9.85416667 L30.1875,30.3958333 C30.1875,30.7410113 29.907678,31.0208333 29.5625,31.0208333 Z M21.6875,2.60416667 C21.6875,2.04735114 22.3607137,1.76849689 22.7544417,2.16222493 L30.0044417,9.41222493 C30.3981698,9.80595297 30.1193155,10.4791667 29.5625,10.4791667 L22.3125,10.4791667 C21.967322,10.4791667 21.6875,10.1993446 21.6875,9.85416667 L21.6875,2.60416667 Z M22.9375,9.22916667 L28.0536165,9.22916667 L22.9375,4.11305014 L22.9375,9.22916667 Z"></path>
    <path d="M11.4375,11.6875 L17.4791667,11.6875 C17.8243446,11.6875 18.1041667,11.407678 18.1041667,11.0625 C18.1041667,10.717322 17.8243446,10.4375 17.4791667,10.4375 L11.4375,10.4375 C11.092322,10.4375 10.8125,10.717322 10.8125,11.0625 C10.8125,11.407678 11.092322,11.6875 11.4375,11.6875 Z M11.4375,15.3125 L23.5208333,15.3125 C23.8660113,15.3125 24.1458333,15.032678 24.1458333,14.6875 C24.1458333,14.342322 23.8660113,14.0625 23.5208333,14.0625 L11.4375,14.0625 C11.092322,14.0625 10.8125,14.342322 10.8125,14.6875 C10.8125,15.032678 11.092322,15.3125 11.4375,15.3125 Z M11.4375,18.9375 L23.5208333,18.9375 C23.8660113,18.9375 24.1458333,18.657678 24.1458333,18.3125 C24.1458333,17.967322 23.8660113,17.6875 23.5208333,17.6875 L11.4375,17.6875 C11.092322,17.6875 10.8125,17.967322 10.8125,18.3125 C10.8125,18.657678 11.092322,18.9375 11.4375,18.9375 Z M11.4375,22.5625 L23.5208333,22.5625 C23.8660113,22.5625 24.1458333,22.282678 24.1458333,21.9375 C24.1458333,21.592322 23.8660113,21.3125 23.5208333,21.3125 L11.4375,21.3125 C11.092322,21.3125 10.8125,21.592322 10.8125,21.9375 C10.8125,22.282678 11.092322,22.5625 11.4375,22.5625 Z M11.4375,26.1875 L23.5208333,26.1875 C23.8660113,26.1875 24.1458333,25.907678 24.1458333,25.5625 C24.1458333,25.217322 23.8660113,24.9375 23.5208333,24.9375 L11.4375,24.9375 C11.092322,24.9375 10.8125,25.217322 10.8125,25.5625 C10.8125,25.907678 11.092322,26.1875 11.4375,26.1875 Z"></path>
  </g>
</svg>
