<?xml version="1.0" encoding="UTF-8"?>
<svg width="36px" height="33px" viewBox="0 0 36 33" version="1.1" xmlns="http://www.w3.org/2000/svg" xmlns:xlink="http://www.w3.org/1999/xlink">
  <g id="arts" fill-rule="nonzero" fill="#000000">
      <path d="M33.9583333,18.4179198 C33.9583333,21.8188935 32.1619339,25.1704489 29.2469198,27.9886846 C26.8602965,30.2960721 23.9436456,31.9595864 22.3541667,31.9595864 C20.7646877,31.9595864 17.8480369,30.2960721 15.4614136,27.9886846 C12.5463994,25.1704489 10.75,21.8188935 10.75,18.4179198 L10.75,7.43616975 C10.75,6.87923372 11.4234627,6.60043408 11.8171184,6.99440476 C14.8014263,9.98110008 29.9055612,9.98005842 32.8913916,6.99422802 C33.2851196,6.60049998 33.9583333,6.87935422 33.9583333,7.43616975 L33.9583333,18.4179198 Z M12,18.4179198 C12,21.4316541 13.6373948,24.4865537 16.3302531,27.090009 C18.5055694,29.1931048 21.1644267,30.7095864 22.3541667,30.7095864 C23.5439066,30.7095864 26.202764,29.1931048 28.3780802,27.090009 C31.0709385,24.4865537 32.7083333,21.4316541 32.7083333,18.4179198 L32.7083333,8.64925993 C28.2511964,11.0951412 16.4566381,11.0959392 12,8.64960717 L12,18.4179198 Z M24.9583333,2.83934327 L24.9583333,6.14708642 C24.9583333,6.49226439 25.2381554,6.77208642 25.5833333,6.77208642 C25.9285113,6.77208642 26.2083333,6.49226439 26.2083333,6.14708642 L26.2083333,1.62625309 C26.2083333,1.06943756 25.5351196,0.790583311 25.1413916,1.18431135 C22.2507208,4.07498219 8.00186669,4.16808531 4.38859803,1.46094546 C4.26965087,1.37182765 4.16222945,1.27967522 4.06711841,1.18448809 C3.67346266,0.790517416 3,1.06931706 3,1.62625309 L3,12.6054198 C3,15.6994202 4.48413108,18.7536332 6.97537715,21.4296989 C7.21057449,21.682345 7.60604972,21.69649 7.8586958,21.4612926 C8.11134187,21.2260953 8.12548686,20.83062 7.89028952,20.577974 C5.59659167,18.1141121 4.25,15.3429433 4.25,12.6054198 L4.25,2.8396905 C8.70663809,5.28602257 20.5011964,5.28522449 24.9583333,2.83934327 Z M25.6041667,22.2903364 C25.6041667,24.0849719 24.148467,25.5403364 22.3541667,25.5403364 C20.559053,25.5403364 19.1041667,24.0854501 19.1041667,22.2903364 C19.1041667,21.9451585 18.8243446,21.6653364 18.4791667,21.6653364 C18.1339887,21.6653364 17.8541667,21.9451585 17.8541667,22.2903364 C17.8541667,24.7758061 19.868697,26.7903364 22.3541667,26.7903364 C24.8387585,26.7903364 26.8541667,24.7753923 26.8541667,22.2903364 C26.8541667,21.9451585 26.5743446,21.6653364 26.2291667,21.6653364 C25.8839887,21.6653364 25.6041667,21.9451585 25.6041667,22.2903364 Z M25.5625,16.4778364 C25.5625,15.7530038 26.1498968,15.1653364 26.875,15.1653364 C27.599322,15.1653364 28.1875,15.7535144 28.1875,16.4778364 C28.1875,16.8230144 28.467322,17.1028364 28.8125,17.1028364 C29.157678,17.1028364 29.4375,16.8230144 29.4375,16.4778364 C29.4375,15.0631585 28.289678,13.9153364 26.875,13.9153364 C25.4594119,13.9153364 24.3125,15.0627766 24.3125,16.4778364 C24.3125,16.8230144 24.592322,17.1028364 24.9375,17.1028364 C25.282678,17.1028364 25.5625,16.8230144 25.5625,16.4778364 Z M16.5208333,16.4778364 C16.5208333,15.7530038 17.1082301,15.1653364 17.8333333,15.1653364 C18.5576554,15.1653364 19.1458333,15.7535144 19.1458333,16.4778364 C19.1458333,16.8230144 19.4256554,17.1028364 19.7708333,17.1028364 C20.1160113,17.1028364 20.3958333,16.8230144 20.3958333,16.4778364 C20.3958333,15.0631585 19.2480113,13.9153364 17.8333333,13.9153364 C16.4177453,13.9153364 15.2708333,15.0627766 15.2708333,16.4778364 C15.2708333,16.8230144 15.5506554,17.1028364 15.8958333,17.1028364 C16.2410113,17.1028364 16.5208333,16.8230144 16.5208333,16.4778364 Z"></path>
  </g>
</svg>
