<?xml version="1.0" encoding="UTF-8"?>
<svg width="36px" height="33px" viewBox="0 0 36 33" version="1.1" xmlns="http://www.w3.org/2000/svg" xmlns:xlink="http://www.w3.org/1999/xlink">
  <g id="icon/books" fill-rule="nonzero" fill="#000000">
    <path d="M25.3587739,7.65454545 L26.6020761,7.65454545 L26.6020761,4.23636364 L10.9429066,4.23636364 C9.99979326,4.23636364 9.23529412,5.00134853 9.23529412,5.94545455 C9.23529412,6.88884658 10.0002426,7.65454545 10.9429066,7.65454545 L24.1440829,7.65454545 C24.1373174,7.6178985 24.1337814,7.58011823 24.1337814,7.54151136 L24.1337814,6.61018182 L11.5823529,6.61018182 C11.2412359,6.61018182 10.9647059,6.33341239 10.9647059,5.992 C10.9647059,5.65058761 11.2412359,5.37381818 11.5823529,5.37381818 L24.7514284,5.37381818 C25.0925455,5.37381818 25.3690755,5.65058761 25.3690755,5.992 L25.3690755,7.54151136 C25.3690755,7.58011823 25.3655395,7.6178985 25.3587739,7.65454545 Z M8,5.94545455 C8,4.31846001 9.31762283,3 10.9429066,3 L27.2197232,3 C27.5608402,3 27.8373702,3.27676943 27.8373702,3.61818182 L27.8373702,8.27272727 C27.8247485,8.42127504 27.8008146,8.49633372 27.7647059,8.56389466 C27.6606921,8.75850896 27.4556561,8.89090909 27.2197232,8.89090909 C26.8786061,8.89090909 26.6020761,8.61413966 26.6020761,8.27272727 L26.6020761,7.65454545 L28.3823529,7.65454545 C28.72347,7.65454545 29,7.93131488 29,8.27272727 L29,30.3818182 C29,30.7232306 28.72347,31 28.3823529,31 L10.9429066,31 C9.31797663,31 8,29.6807304 8,28.0545455 L8,5.94545455 C8,5.60404215 8.27653001,5.32727273 8.61764706,5.32727273 C8.95876411,5.32727273 9.23529412,5.60404215 9.23529412,5.94545455 L9.23529412,28.0545455 C9.23529412,28.9979375 10.0002426,29.7636364 10.9429066,29.7636364 L27.7647059,29.7636364 L27.7647059,8.27272727 L28.3823529,8.89090909 L10.9429066,8.89090909 C10.3063315,8.89090909 9.71686519,8.68843774 9.23529412,8.34436144 C8.48760057,7.81014407 8,6.93457274 8,5.94545455 Z"></path>
  </g>
</svg>
