<?xml version="1.0" encoding="UTF-8"?>
<svg width="36px" height="33px" viewBox="0 0 36 33" version="1.1" xmlns="http://www.w3.org/2000/svg" xmlns:xlink="http://www.w3.org/1999/xlink">
  <g id="campaigns" fill-rule="nonzero" fill="#000000">
      <path d="M27.6692785,18.5631714 L27.6692785,25.314991 C27.6692785,25.7712325 27.1976666,26.0761128 26.779614,25.8901274 C26.3628118,25.7046982 24.9589194,25.0729403 24.7402776,24.9752245 C21.6273189,23.5839746 19.6257772,22.8337046 17.0832103,22.2122087 C14.8938099,21.6770396 12.5025055,21.3196995 9.76182658,21.1461079 L9.76182658,28.7615894 C9.76182658,29.9614031 8.77261718,30.9292807 7.55806402,30.9292807 C6.34351085,30.9292807 5.35430145,29.9614031 5.35430145,28.7615894 L5.35430145,21.0237277 L4.4041987,21.0237277 C1.97541462,21.0237277 0,19.0910767 0,16.7030515 L0,14.2424974 C0,11.8538511 1.97511653,9.92182124 4.4041987,9.92182124 L5.66159077,9.92182124 C10.2278064,9.92182124 13.8880031,9.51677619 17.1118672,8.72591645 C19.65548,8.10193203 21.6478282,7.35317288 24.7793074,5.95277676 C24.954409,5.8744714 26.3587972,5.24257705 26.7796826,5.05539104 C27.1977277,4.86946824 27.6692785,5.17434871 27.6692785,5.63055793 L27.6692785,12.3823775 C29.0554149,12.3841437 30.1840627,13.4897343 30.1840627,14.8576359 L30.1840627,16.087913 C30.1840627,17.4561373 29.0555517,18.5614059 27.6692785,18.5631714 Z M26.4052336,17.9335479 C26.4052336,17.9334748 26.4052336,17.9334017 26.4052336,17.9333286 L26.4052336,13.0122203 C26.4052336,13.0121654 26.4052336,13.0121104 26.4052336,13.0120554 L26.4052336,6.60420201 C25.9109242,6.82614375 25.3993435,7.05620707 25.2968235,7.10205395 C22.1018422,8.53084819 20.046329,9.30334588 17.4140079,9.9490917 C14.3173556,10.7087446 10.8448982,11.1219081 6.61834639,11.1755209 L6.61834639,19.7700207 C10.8327763,19.8234157 14.2960398,20.233893 17.3843313,20.9887838 C20.0156744,21.6319798 22.0808731,22.4061113 25.2575264,23.8258277 C25.3852388,23.8829052 25.9073117,24.1176742 26.4052336,24.3412626 L26.4052336,17.9335479 Z M8.49778164,21.0801385 C7.88875977,21.0549075 7.26276134,21.0381117 6.61834639,21.0298088 L6.61834639,28.7615894 C6.61834639,29.2604694 7.03648472,29.6695908 7.55806402,29.6695908 C8.07964332,29.6695908 8.49778164,29.2604694 8.49778164,28.7615894 L8.49778164,21.0801385 Z M5.35430145,19.7640378 L5.35430145,11.1815112 L4.4041987,11.1815112 C2.66801952,11.1815112 1.26404494,12.5548584 1.26404494,14.2424974 L1.26404494,16.7030515 C1.26404494,18.3901184 2.66836486,19.7640378 4.4041987,19.7640378 L5.35430145,19.7640378 Z M28.9200177,16.087913 L28.9200177,14.8576359 C28.9200177,14.1905917 28.3623728,13.6438139 27.6692785,13.6420695 L27.6692785,17.3034795 C28.3625561,17.3017364 28.9200177,16.7552309 28.9200177,16.087913 Z M31.7502742,15.8525296 C31.4012179,15.8525296 31.1182518,15.5705384 31.1182518,15.2226847 C31.1182518,14.8748309 31.4012179,14.5928397 31.7502742,14.5928397 L35.3128851,14.5928397 C35.6619415,14.5928397 35.9449076,14.8748309 35.9449076,15.2226847 C35.9449076,15.5705384 35.6619415,15.8525296 35.3128851,15.8525296 L31.7502742,15.8525296 Z M31.3955922,12.7402711 C31.0919308,12.9118119 30.7062225,12.8055551 30.5340886,12.5029398 C30.3619547,12.2003246 30.4685789,11.8159451 30.7722404,11.6444043 L33.857508,9.9015118 C34.1611695,9.72997099 34.5468778,9.83622783 34.7190116,10.1388431 C34.8911455,10.4414583 34.7845213,10.8258378 34.4808598,10.9973786 L31.3955922,12.7402711 Z M30.8368331,18.3901304 C30.5331716,18.2185896 30.4265474,17.8342101 30.5986813,17.5315949 C30.7708152,17.2289796 31.1565235,17.1227228 31.4601849,17.2942636 L34.5454525,19.0371561 C34.849114,19.2086969 34.9557382,19.5930763 34.7836043,19.8956916 C34.6114705,20.1983068 34.2257622,20.3045637 33.9221007,20.1330229 L30.8368331,18.3901304 Z"></path>
  </g>
</svg>
