<?xml version="1.0" encoding="UTF-8"?>
<svg width="36px" height="33px" viewBox="0 0 36 33" version="1.1" xmlns="http://www.w3.org/2000/svg" xmlns:xlink="http://www.w3.org/1999/xlink">
  <g id="education" fill-rule="nonzero" fill="#000000">
      <path d="M17.8958333,29.4166667 C18.6915544,29.4166667 19.1222618,29.5884588 19.5886953,29.9985102 C19.7133754,30.1099545 19.7641722,30.1546973 19.8201219,30.199457 C20.2386022,30.5342413 20.8914475,30.7083333 22.4166667,30.7083333 C25.6076792,30.7083333 29.5416667,23.7145778 29.5416667,18.4166667 C29.5416667,13.6490884 26.622396,10 23.0625,10 C21.4871162,10 20.546508,10.2015589 19.7899252,10.5798503 C19.6305142,10.6595558 19.1057746,10.9622902 18.9826335,11.0238607 C18.6250835,11.2026357 18.2943972,11.2916667 17.8958333,11.2916667 C17.4972695,11.2916667 17.1665831,11.2026357 16.8090332,11.0238607 C16.6858921,10.9622902 16.1611525,10.6595558 16.0017415,10.5798503 C15.2451586,10.2015589 14.3045504,10 12.7291667,10 C9.16927071,10 6.25,13.6490884 6.25,18.4166667 C6.25,23.7145778 10.1839875,30.7083333 13.375,30.7083333 C14.9002191,30.7083333 15.5530644,30.5342413 15.9715448,30.199457 C16.0274944,30.1546973 16.0782912,30.1099545 16.2029713,29.9985102 C16.6694049,29.5884588 17.1001123,29.4166667 17.8958333,29.4166667 Z M17.2708333,9.85287085 L17.2708333,8.08333333 C17.2708333,7.00767797 16.3881554,6.125 15.3125,6.125 L12.7291667,6.125 C12.3839887,6.125 12.1041667,5.84517797 12.1041667,5.5 C12.1041667,5.15482203 12.3839887,4.875 12.7291667,4.875 L15.3125,4.875 C17.0785113,4.875 18.5208333,6.31732203 18.5208333,8.08333333 L18.5208333,9.85287085 C18.7028849,9.75141437 19.0685933,9.54297378 19.2309082,9.46181634 C20.1696378,8.99245152 21.3010782,8.75 23.0625,8.75 C27.3817707,8.75 30.7916667,13.01237 30.7916667,18.4166667 C30.7916667,24.3132 26.4912792,31.9583333 22.4166667,31.9583333 C20.63199,31.9583333 19.7106165,31.7126337 19.0392531,31.175543 C18.9563222,31.1091983 18.87945,31.0414878 18.7633757,30.9373113 C18.5191075,30.7225701 18.3789496,30.6666667 17.8958333,30.6666667 C17.4127171,30.6666667 17.2725591,30.7225701 17.028291,30.9373113 C16.9122166,31.0414878 16.8353445,31.1091983 16.7524136,31.175543 C16.0810501,31.7126337 15.1596767,31.9583333 13.375,31.9583333 C9.30038751,31.9583333 5,24.3132 5,18.4166667 C5,13.01237 8.40989596,8.75 12.7291667,8.75 C14.4905884,8.75 15.6220289,8.99245152 16.5607585,9.46181634 C16.7230734,9.54297378 17.0887817,9.75141437 17.2708333,9.85287085 Z M20.4791667,8.0625 C20.1339887,8.0625 19.8541667,7.78267797 19.8541667,7.4375 C19.8541667,3.88339742 22.7371216,1 26.2916667,1 C26.6368446,1 26.9166667,1.27982203 26.9166667,1.625 C26.9166667,5.18083669 24.034561,8.0625 20.4791667,8.0625 Z M25.624121,2.29259491 C23.2936435,2.5922657 21.4464274,4.43969478 21.1467651,6.76995085 C23.477955,6.47051507 25.3246767,4.62400619 25.624121,2.29259491 Z"></path>
  </g>
</svg>
