<?xml version="1.0" encoding="UTF-8"?>
<svg width="36px" height="33px" viewBox="0 0 36 33" version="1.1" xmlns="http://www.w3.org/2000/svg" xmlns:xlink="http://www.w3.org/1999/xlink">
  <g id="environment" fill-rule="nonzero" fill="#000000">
      <path d="M22.0925894,12.0518216 L22.0925894,10.1635502 C22.0925894,9.82997327 22.3630069,9.55955575 22.6965838,9.55955575 C23.0301607,9.55955575 23.3005782,9.82997327 23.3005782,10.1635502 L23.3005782,11.6994217 L24.8364498,11.6994217 C25.1700267,11.6994217 25.4404442,11.9698392 25.4404442,12.3034161 C25.4404442,12.636993 25.1700267,12.9074106 24.8364498,12.9074106 L22.9453548,12.9074106 L18.4474092,17.405731 L21.9832951,17.405731 C22.3168721,17.405731 22.5872896,17.6761485 22.5872896,18.0097254 C22.5872896,18.3433023 22.3168721,18.6137198 21.9832951,18.6137198 L17.239521,18.6137198 L12.7415755,23.1120402 L18.4168519,23.1120402 C18.7504288,23.1120402 19.0208463,23.3824577 19.0208463,23.7160346 C19.0208463,24.0496115 18.7504288,24.320029 18.4168519,24.320029 L11.5336873,24.320029 L7.73790971,28.1161229 C17.8543869,34.3743142 24.8096578,29.1357366 29.3753129,16.2621656 C30.516881,13.0433377 31.4036938,9.58917041 32.0651716,6.13424854 C32.2967737,4.92458261 32.4835803,3.80162833 32.6294397,2.79453988 C32.6546979,2.62014447 32.6777986,2.45553936 32.6988009,2.30116778 C32.544396,2.3221673 32.3797536,2.34526545 32.2053172,2.37052129 C31.1981361,2.51634641 30.0750786,2.70311349 28.8653017,2.93467136 C25.4100629,3.59602283 21.9555788,4.48269727 18.7364551,5.62411979 C5.8606039,10.1895817 0.621787627,17.1451184 6.88307923,27.2625992 L10.6799709,23.4653911 L10.6799709,16.5831481 C10.6799709,16.2495712 10.9503884,15.9791536 11.2839653,15.9791536 C11.6175422,15.9791536 11.8879598,16.2495712 11.8879598,16.5831481 L11.8879598,22.2573016 L16.3862801,17.7586064 L16.3862801,13.0167048 C16.3862801,12.6831279 16.6566977,12.4127104 16.9902746,12.4127104 C17.3238515,12.4127104 17.594269,12.6831279 17.594269,13.0167048 L17.594269,16.5505169 L22.0925894,12.0518216 Z M6.86139844,28.9927072 L6.00476244,29.8494146 C5.76889777,30.0852989 5.38646966,30.0853149 5.15058533,29.8494502 C4.91470101,29.6135855 4.91468508,29.2311574 5.15054975,28.9952731 L6.00658693,28.1391646 C-1.01375414,17.0571229 4.73231224,9.30796852 18.3327578,4.48558319 C21.615456,3.3216187 25.1272096,2.42024471 28.6382086,1.74822045 C29.8666148,1.51309682 31.0075847,1.32335087 32.0322229,1.17499821 C32.3915025,1.12297977 32.7108097,1.07982863 32.9865274,1.04505033 C33.153065,1.02404371 33.2687553,1.01042514 33.3299791,1.00370152 C33.7141078,0.961516366 34.0384969,1.285919 33.9962957,1.6700459 C33.98957,1.73126488 33.9759475,1.84694553 33.9549353,2.01346879 C33.9201477,2.28916239 33.8769857,2.60844157 33.8249548,2.96768963 C33.6765667,3.99223734 33.4867799,5.13310619 33.2516107,6.36140364 C32.5794559,9.87209142 31.6779384,13.3835338 30.5138216,16.6659415 C25.6911933,30.2640883 17.942358,36.0097577 6.86139844,28.9927072 Z"></path>
  </g>
</svg>
