<?xml version="1.0" encoding="UTF-8"?>
<svg width="36px" height="33px" viewBox="0 0 36 33" version="1.1" xmlns="http://www.w3.org/2000/svg" xmlns:xlink="http://www.w3.org/1999/xlink">
  <g id="faith" fill-rule="nonzero" fill="#1E1E1E">
      <path d="M6.51177536,15.0382738 C6.45459627,14.9967677 6.39834951,14.9556691 6.34303811,14.9149731 C5.53705424,14.3219618 4.96288001,13.846449 4.6217332,13.4493334 C4.69490443,15.4789692 4.98772791,17.86118 5.33618212,18.8716973 C5.75222543,20.0782229 7.61025101,22.995649 8.99453273,24.7952152 C9.16523354,25.0171263 9.33886031,25.2301836 9.55198368,25.482265 C9.61042555,25.5513898 9.96653855,25.9680084 10.0618181,26.081905 C10.4661161,26.5652004 10.6919145,26.8891935 10.8396605,27.2465095 C10.9572027,27.530779 11.0103446,27.8167736 10.992923,28.1129415 C10.9208274,29.3385662 10.9124066,29.9759176 10.9893364,30.4882577 C11.0496842,30.8885243 11.4405286,31.2797917 11.6960417,31.2797917 C11.7571869,31.2797917 12.2477485,31.2937599 12.2072744,31.2927121 C13.2220697,31.3189814 14.1325495,31.3084831 15.0306399,31.2318178 C16.8538075,31.0761836 17.9071605,30.661478 17.9093817,30.2102943 C17.9143053,29.1666905 17.8749827,28.3671587 17.7872071,27.8017889 C17.7161451,27.3440724 17.6162738,27.0995342 17.6115699,27.0867337 C17.0272455,26.8000121 16.5430281,26.5534973 16.0990818,26.3144493 C14.7010146,25.5616439 12.0373864,22.2175268 11.249675,20.3997311 C10.3628155,18.3531324 9.6593926,17.1807609 8.86322155,16.6499802 C8.48566302,16.3990221 8.24391815,16.2379732 7.9902337,16.0670423 C7.86771886,15.9844926 7.7486672,15.90381 7.63254837,15.8245847 C7.57651573,17.0102235 7.93251557,18.3151926 8.82481094,19.1499205 C9.0668016,19.3762988 9.07945787,19.755987 8.85307951,19.9979776 C8.62670116,20.2399683 8.24701305,20.2526245 8.00502239,20.0262462 C6.61689223,18.7276728 6.22490218,16.7143549 6.51177536,15.0382738 Z M3.55817314,10.4362804 C3.49913864,9.95517559 3.52281899,9.56045554 3.67543705,9.36968297 C3.64798266,9.40400096 3.79206652,9.21762553 3.84862113,9.15251489 C4.02196375,8.95294763 4.21734878,8.80731918 4.43171652,8.72400017 C3.28705021,6.7888958 3.15272852,6.25743448 3.57360766,5.53592738 C3.60918821,5.47493216 3.64385008,5.39712281 3.69796898,5.25911963 C3.7138485,5.21847794 3.7138485,5.21847794 3.73044281,5.1758635 C3.94812079,4.6179562 4.10367028,4.36792035 4.51836904,4.21319913 C4.67252257,4.15568553 4.83074492,4.13515235 4.99643375,4.149923 C4.91763548,3.48220748 5.05524874,3.04973533 5.3894073,2.60919159 C5.42085677,2.56791109 5.42085677,2.56791109 5.4488815,2.53100812 C5.47929657,2.49071094 5.50080753,2.46089416 5.51972816,2.43251322 C6.00789979,1.70025576 7.10750161,1.98840359 8.6206754,2.86718753 C8.70375859,2.34867626 8.94241237,1.86152217 9.32071426,1.59671085 C10.0582581,1.08043017 10.4632679,1.26285654 12.9743203,2.72160387 C13.0580346,2.77019477 13.0580346,2.77019477 13.1417085,2.81853865 C13.7052449,3.14365581 16.4115682,4.89423602 17.2055119,5.36828974 C17.5028279,5.54581343 17.7934799,5.71423286 18.0812752,5.87530289 C17.7342356,4.42907282 17.8189384,4.17141548 18.2911349,3.51034042 C18.7116721,2.92158843 18.9494062,2.63519521 19.262889,2.41648633 C19.8606108,1.99947106 20.524371,2.1379241 20.9169037,2.83575992 C21.387751,3.67282189 22.8463497,6.53599712 23.6942635,8.28481923 C23.982418,8.87913794 24.4498374,9.84267306 25.0475009,11.0744408 C25.6737484,12.3650701 25.6737484,12.3650701 26.1956238,13.4404936 C26.582016,14.236701 26.6108062,14.2960266 26.695689,14.4709281 C27.4079456,15.6297266 27.9788335,16.8698434 28.3135508,18.0134607 C28.8508807,19.8493379 29.5546041,22.569134 29.6651428,23.0108324 C29.7372493,23.0953711 29.8428296,23.2033574 29.973744,23.3269989 C30.0195712,23.37028 30.0680893,23.4150961 30.1189529,23.4611847 C30.3623066,23.681693 30.608081,23.8870066 30.7687754,24.015562 C30.9817513,24.1859428 31.0530164,24.4785314 30.9422453,24.7277664 C29.7932571,27.3129898 26.0971111,30.5565465 24.1641598,31.1513007 C23.9542817,31.2158786 23.7258916,31.1606464 23.568714,31.0073025 C23.4800295,30.920781 23.3183893,30.7667763 23.1032256,30.5679838 C22.7443201,30.2363863 22.3703217,29.9048966 22.0012114,29.5965489 C21.8234018,29.4480102 21.6508247,29.3083464 21.4848938,29.1791184 C21.025187,28.8210962 20.6309684,28.5546588 20.3339635,28.4061563 C20.1020509,28.2902 19.5313903,28.0137861 19.0013294,27.7579912 C19.085978,28.3915488 19.1141498,29.2024785 19.1093677,30.2160788 C19.1024328,31.6247374 17.5980426,32.2170165 15.1327064,32.4274693 C14.1813444,32.5086821 13.2316811,32.5196322 12.1762212,32.4923103 C12.1835592,32.4925002 11.7372357,32.4797917 11.6960417,32.4797917 C10.8050457,32.4797917 9.94644565,31.6202624 9.80269325,30.6668019 C9.70861722,30.0402709 9.71763771,29.3575271 9.79499371,28.0424751 C9.80134126,27.9345667 9.7815212,27.8279008 9.73072102,27.7050432 C9.59055841,27.3660674 7.9450743,25.3990656 8.04338394,25.5268681 C6.58337454,23.6288559 4.67275698,20.6288511 4.20173454,19.2628861 C3.59146327,17.4930994 3.16521169,12.3842958 3.55817314,10.4362804 Z M4.74475059,10.3356477 C4.75023085,10.3576543 4.75447963,10.3800561 4.75743622,10.4027568 C4.78671998,10.5526361 4.82623984,10.7237216 4.87433246,10.9083973 C5.02867061,11.5010558 5.25180897,12.1579751 5.41683488,12.5116021 C5.5151771,12.7223354 6.13058285,13.2688464 7.05419938,13.9484072 C7.21820681,14.0690774 7.39132647,14.1938391 7.57335702,14.3227282 C7.91034703,14.5613383 8.26689845,14.8064753 8.660776,15.0718674 C8.91141376,15.2407455 9.1500501,15.3997235 9.52886178,15.6515198 C10.5903296,16.359165 11.3688512,17.656701 12.3507417,19.9226022 C13.0400402,21.5132911 15.5380082,24.649426 16.6680016,25.257884 C17.092301,25.486353 17.5584758,25.7238099 18.1221117,26.0005655 C18.1294476,26.0038435 18.1367498,26.0072809 18.1440143,26.010879 C18.151552,26.0146125 18.1590353,26.018428 18.1664645,26.022326 C18.2516948,26.0641091 18.3391464,26.1067923 18.4290061,26.1504778 C18.4556982,26.1634543 20.3825065,27.088787 20.8706198,27.3328437 C21.25268,27.5238738 21.7053188,27.8297951 22.2222287,28.2323676 C22.3995066,28.3704326 22.5826487,28.5186465 22.7705449,28.6756114 C23.1564998,28.9980307 23.5449874,29.3423628 23.9175596,29.6865871 C23.9951089,29.7582359 24.0661288,29.8244392 24.1298279,29.8842657 C25.7249546,29.1870053 28.5253243,26.702335 29.6461526,24.6428282 C29.5326448,24.5459167 29.4205457,24.4477012 29.3131919,24.3504255 C29.2564147,24.2989784 29.2018624,24.2485887 29.1497958,24.1994146 C28.711902,23.7858482 28.4992931,23.5365826 28.4479553,23.2285561 C28.3812556,22.8283576 27.6860938,20.1416512 27.1618659,18.3505393 C26.8597163,17.3181947 26.3386148,16.1878308 25.6919924,15.1302551 C25.6746342,15.1062725 25.6588528,15.0807174 25.6448654,15.0536651 C24.8883423,13.8319439 23.9661936,12.7135773 23.0239452,11.9646106 C22.3629085,11.4391712 21.7942411,10.8812999 20.9795266,9.99991468 C20.8742184,9.88598874 20.4624168,9.43739541 20.3611046,9.32779799 C19.2548656,8.1310922 18.5610286,7.50969305 17.7089738,7.04106288 C17.3408577,6.83859903 16.9704702,6.62558275 16.5903249,6.39860282 C15.7686197,5.90797299 13.0725299,4.16401231 12.5420415,3.85796135 C12.456535,3.80855855 12.456535,3.80855855 12.3715361,3.75922194 C10.7440831,2.81378458 10.0933275,2.52066826 10.0088691,2.57978915 C9.7948859,2.72957737 9.70739862,3.46495526 9.87359536,3.69321628 C9.87610764,3.69636494 9.87858512,3.69953553 9.88102767,3.70272746 C9.9987012,3.83792136 11.4964508,4.92212493 13.5388341,6.34429671 C13.6056189,6.39079297 13.6056189,6.39079297 13.6724301,6.43727647 C14.5328754,7.03582862 15.4550412,7.67175474 16.3772429,8.30399836 C16.7000413,8.52530267 16.9997735,8.73032982 17.2687402,8.91395586 C17.5453158,9.10264419 17.5453158,9.10264419 17.6065328,9.14430561 C17.8804813,9.33074281 17.9514233,9.70395921 17.7649861,9.97790776 C17.5785489,10.2518563 17.2053325,10.3227983 16.9313839,10.1363611 C16.8695021,10.0942469 16.8695021,10.0942469 16.5921334,9.9050175 C16.3225431,9.72096575 16.0221689,9.51549947 15.6986989,9.29373469 C14.7744194,8.66006664 13.8501041,8.02265818 12.9871669,7.42237263 C12.9201274,7.37573025 12.9201274,7.37573025 12.8531073,7.32907016 C10.6647479,5.80525095 9.40576598,4.8993788 9.02383291,4.53494089 C8.32145286,4.06988501 7.61644731,3.67354521 7.0679123,3.44169021 C6.78732917,3.32309321 6.55978296,3.25296256 6.41000839,3.23485794 C6.38009839,3.23124245 6.43975425,3.21580485 6.51818851,3.09815345 C6.48421364,3.14911576 6.45001424,3.19652024 6.40668445,3.25392824 C6.3741038,3.29683502 6.3741038,3.29683502 6.34548597,3.33439059 C6.11560847,3.63745358 6.0835008,3.87635228 6.37868988,4.85074494 C8.18333391,6.21491271 14.7255635,11.2976109 15.364857,11.8385516 C15.617821,12.052598 15.6493699,12.4311847 15.4353234,12.6841487 C15.221277,12.9371126 14.8426903,12.9686615 14.5897263,12.7546151 C13.9539743,12.2166711 7.04438043,6.84994372 5.50817328,5.6973495 C5.50431784,5.69453066 5.50049462,5.69166498 5.49670458,5.68875298 C5.11574376,5.40376801 4.93479987,5.33863055 4.9378369,5.33749745 C4.97556373,5.32342184 4.93643333,5.38632145 4.84836441,5.61204155 C4.832229,5.65347995 4.832229,5.65347995 4.81513681,5.69722466 C4.73986877,5.88915818 4.68515642,6.01197704 4.61014234,6.14057262 C4.48694344,6.35177074 4.81638443,7.06141502 6.10897614,9.18139915 C6.35897588,9.37488662 7.08660304,9.93798574 7.45002852,10.2205026 C8.26944056,10.8574908 9.03196476,11.4558189 9.75200428,12.0289704 C9.88492712,12.1348443 9.88492712,12.1348443 10.0176939,12.2408765 C11.894624,13.7409096 13.1270824,14.7889681 13.5578456,15.2915252 C13.7734989,15.5431207 13.744362,15.9219007 13.4927665,16.137554 C13.241171,16.3532073 12.862391,16.3240703 12.6467377,16.0724748 C12.2882375,15.6542246 11.0653402,14.6142966 9.2685201,13.1782872 C9.13669836,13.0730096 9.13669836,13.0730096 9.00466239,12.9678421 C8.28867342,12.3979149 7.52959921,11.8022939 6.71353919,11.1679114 C6.30056357,10.8468756 5.41243661,10.1597715 5.29777816,10.0709807 C5.29014179,10.0653438 5.28262398,10.0595126 5.27523271,10.053489 C4.92438936,9.78131349 4.88596622,9.78821481 4.70087933,10.005854 C4.70285804,10.042274 4.70709604,10.0875614 4.7138394,10.1400502 C4.72142994,10.1991334 4.73180122,10.2646418 4.74475059,10.3356477 Z M19.5768474,6.87641123 C20.0776003,7.29540593 20.5987696,7.81708877 21.2422859,8.51323092 C21.3454804,8.62486462 21.7572956,9.07347275 21.8607284,9.18536974 C22.5795996,9.96306854 23.0884398,10.4676198 23.6378082,10.9179998 C23.1971426,10.009738 22.8473268,9.28858045 22.6144865,8.80834744 C21.7851506,7.09784205 20.3576005,4.29474771 19.8857049,3.45028062 C19.7400371,3.57470926 19.5572257,3.80237145 19.2676151,4.20782625 C18.9988321,4.5841224 19.0125858,4.74051929 19.5768474,6.87641123 Z"></path>
  </g>
</svg>
