<?xml version="1.0" encoding="UTF-8"?>
<svg width="36px" height="33px" viewBox="0 0 36 33" version="1.1" xmlns="http://www.w3.org/2000/svg" xmlns:xlink="http://www.w3.org/1999/xlink">
  <g id="family" fill-rule="nonzero" fill="#1E1E1E">
      <path d="M23.6286608,16.1200494 C23.5937143,17.5295565 22.6976664,18.8137476 21.2558935,19.9821612 C20.7620286,20.3823896 20.2357596,20.7411963 19.709568,21.0548354 C19.3924966,21.2438274 19.1431896,21.3771602 18.9946062,21.4498 C18.8213993,21.5344777 18.6188063,21.5344777 18.4455995,21.4498 C18.297016,21.3771602 18.0477091,21.2438274 17.7306377,21.0548354 C17.2044461,20.7411963 16.6781771,20.3823896 16.1843122,19.9821612 C14.7425392,18.8137476 13.8464913,17.5295565 13.8113528,16.1045583 C13.8113528,13.08139 16.9658936,11.7222049 18.7204779,13.2406378 C20.4765799,11.7226501 23.6288336,13.082691 23.6286608,16.1200494 Z M19.0695655,19.9811051 C19.5475699,19.6961882 20.0254968,19.3703408 20.4688814,19.0110217 C21.6536562,18.0508795 22.3553378,17.0452488 22.3788528,16.1045583 C22.3788528,13.9611399 20.0987164,13.1967846 19.2464511,14.5278283 C19.0004389,14.9120431 18.4390029,14.9117458 18.1933978,14.5272706 C17.3434669,13.1967712 15.0613528,13.9615343 15.0611608,16.0890672 C15.0848678,17.0452488 15.7865495,18.0508795 16.9713242,19.0110217 C17.4147089,19.3703408 17.8926358,19.6961882 18.3706401,19.9811051 C18.5023103,20.0595877 18.6199098,20.1268256 18.7201028,20.1822131 C18.8202958,20.1268256 18.9378954,20.0595877 19.0695655,19.9811051 Z M4.25010282,22.0008083 L4.25010282,29.5008083 L8.00010282,29.5008083 L8.00010282,22.0008083 L4.25010282,22.0008083 Z M26.7501028,4.72211932 L26.7501028,3.87580829 C26.7501028,3.53063032 27.0299248,3.25080829 27.3751028,3.25080829 L32.3751028,3.25080829 C32.7202808,3.25080829 33.0001028,3.53063032 33.0001028,3.87580829 L33.0001028,12.6258083 C33.0001028,12.9709863 32.7202808,13.2508083 32.3751028,13.2508083 L27.3751028,13.2508083 C27.0299248,13.2508083 26.7501028,12.9709863 26.7501028,12.6258083 L26.7501028,12.0008083 L23.6251028,12.0008083 C21.2011303,12.0008083 19.2650776,10.9534898 17.7453696,9.50080829 L14.2501028,9.50080829 C13.5228969,9.50080829 12.9828318,9.25246472 12.6299073,8.88359608 L7.54644199,10.5706139 C5.91746635,11.0349758 4.64256138,10.6195275 3.1833691,9.16170795 C2.88148889,8.86011174 2.96392228,8.35137732 3.34559432,8.1605413 C4.98429916,7.34118888 6.45649367,6.58037141 8.1218148,5.69997871 C7.89147681,5.82174975 10.8782431,4.23510587 11.5310132,3.89700442 C13.7064365,2.77024671 14.9025628,2.28064062 16.1037075,2.08690759 C17.3701588,1.88264127 18.5746225,2.03461693 20.4150591,2.58351907 C21.277117,2.84062404 24.9713798,4.11381684 26.7501028,4.72211932 Z M26.7501028,6.04298209 C25.1921787,5.51254434 20.9638249,4.05159589 20.0578027,3.78137877 C18.3818268,3.28152629 17.3524835,3.15164682 16.3027481,3.32095899 C15.2705128,3.48744855 14.1695049,3.9381202 12.1059112,5.00695592 C11.4599174,5.34154755 8.48196865,6.92350736 8.70602755,6.80505584 C7.31485653,7.54051568 6.05696955,8.1933636 4.72513157,8.86620633 C5.5633947,9.51606646 6.26902343,9.63508231 7.17818694,9.37638957 L12.1337117,7.73129018 C12.0787066,6.7599825 12.7841703,5.75080829 14.2501028,5.75080829 L21.1251028,5.75080829 C21.4702808,5.75080829 21.7501028,6.03063032 21.7501028,6.37580829 C21.7501028,6.72098626 21.4702808,7.00080829 21.1251028,7.00080829 L14.2501028,7.00080829 C13.5638088,7.00080829 13.2838407,7.43897427 13.4101986,7.7964668 C13.4351667,7.83455152 13.4562923,7.87592214 13.4728603,7.92021997 C13.6001155,8.10865271 13.8591964,8.25080829 14.2501028,8.25080829 L18.0001028,8.25080829 C18.1658631,8.25080829 18.3248343,8.31665632 18.4420446,8.43386655 C19.7771461,9.76896806 21.501538,10.7508083 23.6251028,10.7508083 L26.7501028,10.7508083 L26.7501028,6.04298209 Z M28.0001028,5.60897346 L28.0001028,12.0008083 L31.7501028,12.0008083 L31.7501028,4.50080829 L28.0001028,4.50080829 L28.0001028,5.57996565 C28.0003283,5.58961087 28.0003295,5.59928022 28.0001028,5.60897037 Z M9.25010282,23.2508083 L9.25010282,27.8811345 C10.8080269,28.4115722 15.0363808,29.8725207 15.9424029,30.1427378 C17.6183788,30.6425903 18.6477221,30.7724698 19.6974575,30.6031576 C20.7296928,30.436668 21.8307007,29.9859964 23.8942945,28.9171607 C24.5402882,28.582569 27.518237,27.0006092 27.2941781,27.1190607 C28.6854793,26.3835321 29.9434715,25.7306308 31.275448,25.0577214 C30.4375284,24.4076433 29.7318976,24.2888315 28.8219021,24.5477657 L23.8605684,26.1937111 C23.9581166,27.1877988 23.2546281,28.2508083 21.7501028,28.2508083 L14.8751028,28.2508083 C14.5299248,28.2508083 14.2501028,27.9709863 14.2501028,27.6258083 C14.2501028,27.2806303 14.5299248,27.0008083 14.8751028,27.0008083 L21.7501028,27.0008083 C22.4806389,27.0008083 22.7507727,26.5043285 22.5605042,26.137157 C22.5494482,26.1203465 22.5391416,26.102894 22.5296462,26.0848303 C22.4032279,25.8946935 22.1433801,25.7508083 21.7501028,25.7508083 L18.0001028,25.7508083 C17.8343425,25.7508083 17.6753713,25.6849603 17.5581611,25.56775 C16.2230596,24.2326485 14.4986676,23.2508083 12.3751028,23.2508083 L9.25010282,23.2508083 Z M9.25010282,22.0008083 L12.3751028,22.0008083 C14.7990754,22.0008083 16.735128,23.0481267 18.2548361,24.5008083 L21.7501028,24.5008083 C22.43783,24.5008083 22.958184,24.7229196 23.3111649,25.059031 L28.4537636,23.3535026 C30.0835228,22.8889174 31.358478,23.30405 32.8170446,24.7626166 C33.1186953,25.0642673 33.0361727,25.5727946 32.6546113,25.7635753 C31.0159065,26.5829277 29.543712,27.3437452 27.8783908,28.2241379 C28.1087288,28.1023668 25.1219626,29.6890107 24.4691924,30.0271122 C22.2937691,31.1538699 21.0976429,31.643476 19.8964981,31.837209 C18.6300469,32.0414753 17.4255831,31.8894997 15.5851465,31.3405975 C14.7230886,31.0834925 11.0288259,29.8102997 9.25010282,29.2019973 L9.25010282,30.1258083 C9.25010282,30.4709863 8.97028079,30.7508083 8.62510282,30.7508083 L3.62510282,30.7508083 C3.27992485,30.7508083 3.00010282,30.4709863 3.00010282,30.1258083 L3.00010282,21.3758083 C3.00010282,21.0306303 3.27992485,20.7508083 3.62510282,20.7508083 L8.62510282,20.7508083 C8.97028079,20.7508083 9.25010282,21.0306303 9.25010282,21.3758083 L9.25010282,22.0008083 Z"></path>
  </g>
</svg>
