<?xml version="1.0" encoding="UTF-8"?>
<svg width="36px" height="33px" viewBox="0 0 36 33" version="1.1" xmlns="http://www.w3.org/2000/svg" xmlns:xlink="http://www.w3.org/1999/xlink">
  <g id="foundations" fill-rule="nonzero" fill="#000000">
    <path d="M28.8263795,6.79946164 C28.8263795,5.73891587 27.9670856,4.88021534 26.9071332,4.88021534 C25.1327744,4.88021534 23.6944818,6.31751457 23.6944818,8.09286676 C23.6944818,10.5808026 25.7121379,12.5989233 28.2005384,12.5989233 C31.4028904,12.5989233 34,10.0013652 34,6.79946164 C34,3.5958163 31.4037354,1 28.2005384,1 L8.79946164,1 C5.59626462,1 3,3.5958163 3,6.79946164 C3,10.0013652 5.59710963,12.5989233 8.79946164,12.5989233 C11.2878621,12.5989233 13.3055182,10.5808026 13.3055182,8.09286676 C13.3055182,6.31751457 11.8672256,4.88021534 10.0928668,4.88021534 C9.03291441,4.88021534 8.17362046,5.73891587 8.17362046,6.79946164 C8.17362046,7.14510418 8.4538191,7.42530283 8.79946164,7.42530283 C9.14510418,7.42530283 9.42530283,7.14510418 9.42530283,6.79946164 C9.42530283,6.4303946 9.724006,6.13189771 10.0928668,6.13189771 C11.1761341,6.13189771 12.0538358,7.0089933 12.0538358,8.09286676 C12.0538358,9.88958206 10.5965125,11.3472409 8.79946164,11.3472409 C6.2884431,11.3472409 4.25168237,9.31012848 4.25168237,6.79946164 C4.25168237,4.28714977 6.28750132,2.25168237 8.79946164,2.25168237 L28.2005384,2.25168237 C30.7124987,2.25168237 32.7483176,4.28714977 32.7483176,6.79946164 C32.7483176,9.31012848 30.7115569,11.3472409 28.2005384,11.3472409 C26.4034875,11.3472409 24.9461642,9.88958206 24.9461642,8.09286676 C24.9461642,7.0089933 25.8238659,6.13189771 26.9071332,6.13189771 C27.275994,6.13189771 27.5746972,6.4303946 27.5746972,6.79946164 C27.5746972,7.14510418 27.8548958,7.42530283 28.2005384,7.42530283 C28.5461809,7.42530283 28.8263795,7.14510418 28.8263795,6.79946164 Z M12.0538358,10.679677 L12.0538358,31.3741588 C12.0538358,31.7198014 12.3340344,32 12.679677,32 C13.0253195,32 13.3055182,31.7198014 13.3055182,31.3741588 L13.3055182,10.679677 C13.3055182,10.3340344 13.0253195,10.0538358 12.679677,10.0538358 C12.3340344,10.0538358 12.0538358,10.3340344 12.0538358,10.679677 Z M23.6944818,10.679677 L23.6944818,31.3741588 C23.6944818,31.7198014 23.9746805,32 24.320323,32 C24.6659656,32 24.9461642,31.7198014 24.9461642,31.3741588 L24.9461642,10.679677 C24.9461642,10.3340344 24.6659656,10.0538358 24.320323,10.0538358 C23.9746805,10.0538358 23.6944818,10.3340344 23.6944818,10.679677 Z M15.9340511,10.679677 L15.9340511,31.3741588 C15.9340511,31.7198014 16.2142498,32 16.5598923,32 C16.9055349,32 17.1857335,31.7198014 17.1857335,31.3741588 L17.1857335,10.679677 C17.1857335,10.3340344 16.9055349,10.0538358 16.5598923,10.0538358 C16.2142498,10.0538358 15.9340511,10.3340344 15.9340511,10.679677 Z M19.8142665,10.679677 L19.8142665,31.3741588 C19.8142665,31.7198014 20.0944651,32 20.4401077,32 C20.7857502,32 21.0659489,31.7198014 21.0659489,31.3741588 L21.0659489,10.679677 C21.0659489,10.3340344 20.7857502,10.0538358 20.4401077,10.0538358 C20.0944651,10.0538358 19.8142665,10.3340344 19.8142665,10.679677 Z M12.6379542,10.7376561 L24.654105,10.7376561 C24.9997475,10.7376561 25.2799462,10.4574575 25.2799462,10.1118149 C25.2799462,9.76617238 24.9997475,9.48597374 24.654105,9.48597374 L12.6379542,9.48597374 C12.2923117,9.48597374 12.0121131,9.76617238 12.0121131,10.1118149 C12.0121131,10.4574575 12.2923117,10.7376561 12.6379542,10.7376561 Z M12.679677,8.61440108 L24.320323,8.61440108 C24.6659656,8.61440108 24.9461642,8.33420243 24.9461642,7.98855989 C24.9461642,7.64291735 24.6659656,7.36271871 24.320323,7.36271871 L12.679677,7.36271871 C12.3340344,7.36271871 12.0538358,7.64291735 12.0538358,7.98855989 C12.0538358,8.33420243 12.3340344,8.61440108 12.679677,8.61440108 Z"></path>
  </g>
</svg>
