<?xml version="1.0" encoding="UTF-8"?>
<svg width="36px" height="33px" viewBox="0 0 36 33" version="1.1" xmlns="http://www.w3.org/2000/svg" xmlns:xlink="http://www.w3.org/1999/xlink">
  <g id="health" fill-rule="nonzero" fill="#000000">
    <path d="M24.4064039,16.2364532 C24.7532823,16.2364532 25.0344828,16.5176537 25.0344828,16.864532 L25.0344828,21.135468 C25.0344828,21.4823463 24.7532823,21.7635468 24.4064039,21.7635468 L20.7635468,21.7635468 L20.7635468,25.4064039 C20.7635468,25.7532823 20.4823463,26.0344828 20.135468,26.0344828 L15.864532,26.0344828 C15.5176537,26.0344828 15.2364532,25.7532823 15.2364532,25.4064039 L15.2364532,21.7635468 L11.5935961,21.7635468 C11.2467177,21.7635468 10.9655172,21.4823463 10.9655172,21.135468 L10.9655172,16.864532 C10.9655172,16.5176537 11.2467177,16.2364532 11.5935961,16.2364532 L15.2364532,16.2364532 L15.2364532,12.5935961 C15.2364532,12.2467177 15.5176537,11.9655172 15.864532,11.9655172 L20.135468,11.9655172 C20.4823463,11.9655172 20.7635468,12.2467177 20.7635468,12.5935961 L20.7635468,16.2364532 L24.4064039,16.2364532 Z M20.135468,17.4926108 C19.7885896,17.4926108 19.5073892,17.2114104 19.5073892,16.864532 L19.5073892,13.2216749 L16.4926108,13.2216749 L16.4926108,16.864532 C16.4926108,17.2114104 16.2114104,17.4926108 15.864532,17.4926108 L12.2216749,17.4926108 L12.2216749,20.5073892 L15.864532,20.5073892 C16.2114104,20.5073892 16.4926108,20.7885896 16.4926108,21.135468 L16.4926108,24.7783251 L19.5073892,24.7783251 L19.5073892,21.135468 C19.5073892,20.7885896 19.7885896,20.5073892 20.135468,20.5073892 L23.7783251,20.5073892 L23.7783251,17.4926108 L20.135468,17.4926108 Z M35,9.74630542 L35,26.8300493 C35,28.7433801 33.4385,30.3054187 31.5246305,30.3054187 L4.47536946,30.3054187 C2.56248125,30.3054187 1,28.7429375 1,26.8300493 L1,9.74630542 C1,7.83243598 2.56203865,6.27093596 4.47536946,6.27093596 L31.5246305,6.27093596 C33.4389424,6.27093596 35,7.83199357 35,9.74630542 Z M33.7438424,9.74630542 C33.7438424,8.52575027 32.7451857,7.5270936 31.5246305,7.5270936 L4.47536946,7.5270936 C3.2556984,7.5270936 2.25615764,8.52628969 2.25615764,9.74630542 L2.25615764,26.8300493 C2.25615764,28.0491808 3.25623796,29.0492611 4.47536946,29.0492611 L31.5246305,29.0492611 C32.7446463,29.0492611 33.7438424,28.0497203 33.7438424,26.8300493 L33.7438424,9.74630542 Z M22.3546798,6.27093596 L22.3546798,4.7635468 C22.3546798,3.93591776 21.6749197,3.25615764 20.8472906,3.25615764 L15.1527094,3.25615764 C14.3250803,3.25615764 13.6453202,3.93591776 13.6453202,4.7635468 L13.6453202,6.27093596 L22.3546798,6.27093596 Z M12.3891626,6.89901478 L12.3891626,4.7635468 C12.3891626,3.24216106 13.6313236,2 15.1527094,2 L20.8472906,2 C22.3686764,2 23.6108374,3.24216106 23.6108374,4.7635468 L23.6108374,6.89901478 C23.6108374,7.24589313 23.329637,7.5270936 22.9827586,7.5270936 L13.0172414,7.5270936 C12.670363,7.5270936 12.3891626,7.24589313 12.3891626,6.89901478 Z"></path>
  </g>
</svg>
