<?xml version="1.0" encoding="UTF-8"?>
<svg width="36px" height="33px" viewBox="0 0 36 33" version="1.1" xmlns="http://www.w3.org/2000/svg" xmlns:xlink="http://www.w3.org/1999/xlink">
  <g id="international" fill-rule="nonzero" fill="#1E1E1E">
    <path d="M3.02704478,15.7338909 C3.11021266,12.7721166 4.02498787,10.0473865 5.5558847,7.76885485 C5.57776808,7.72648986 5.60456243,7.68664475 5.63626774,7.65045052 C8.28256553,3.79252682 12.7086697,1.24199723 17.8468783,1.03519286 L18.5064583,1.02083333 C27.0897152,1.02083333 33.9791667,7.87629557 33.9791667,16.4444583 C33.9791667,25.0241405 27.0303409,31.9804583 18.4585685,31.9804583 C9.94705399,31.9791219 3.02083333,24.8191983 3.02083333,16.1770833 C3.02083333,16.0804494 3.02171621,15.984053 3.02347465,15.8879012 C3.01901345,15.8366502 3.0202035,15.784848 3.02704478,15.7338909 Z M12.6817457,15.2020417 L24.3312255,15.2020417 C24.2645299,12.970877 23.8088524,10.7926768 22.9646689,8.70204167 L14.0484975,8.70204167 C13.2043838,10.7926294 12.7486412,12.9708538 12.6817457,15.2020417 Z M12.6847691,16.4520417 C12.7585344,18.5867016 13.1824792,20.7632422 13.9570099,22.9520417 L23.0547694,22.9520417 C23.8297725,20.7631882 24.2540725,18.5866684 24.328076,16.4520417 L12.6847691,16.4520417 Z M32.6761993,15.2020417 C32.47132,12.8116377 31.6802788,10.597831 30.4462486,8.70204167 L24.3076057,8.70204167 C25.0957683,10.7997487 25.5204257,12.9774165 25.5819761,15.2020417 L32.6761993,15.2020417 Z M32.7291647,16.4520417 L25.5785062,16.4520417 C25.5079263,18.5911035 25.1065898,20.7673373 24.3748428,22.9520417 L31.1658688,22.9520417 C32.1641836,21.0024419 32.7279498,18.7930627 32.7291647,16.4520417 Z M4.30372932,15.2020417 L11.4309914,15.2020417 C11.4927313,12.977397 11.9174582,10.7997094 12.7055699,8.70204167 L6.43831161,8.70204167 C5.22420691,10.5938673 4.46619703,12.8057768 4.30372932,15.2020417 Z M4.27337137,16.4520417 C4.31650517,18.7871983 4.907782,20.9983216 5.92098254,22.9520417 L12.6370146,22.9520417 C11.9057039,20.7673818 11.5046978,18.5911307 11.4343424,16.4520417 L4.27336914,16.4520417 Z M14.6047018,7.45204167 L22.4084246,7.45204167 C21.5284889,5.64530415 20.348037,3.91169835 18.867393,2.27477197 C18.7520105,2.27205267 18.6362761,2.27068437 18.520205,2.27068214 L18.1417496,2.27894611 C16.6629912,3.91452768 15.4838676,5.64674072 14.6047018,7.45204167 Z M29.5310526,7.45204167 C27.3530386,4.79629658 24.2224707,2.95416096 20.6459522,2.42603546 C21.953714,4.02634394 23.0018261,5.70831034 23.7905258,7.45204167 L29.5310526,7.45204167 Z M7.34435678,7.45204167 L13.2226188,7.45204167 C14.0120611,5.70654625 15.0613714,4.02299557 16.3707905,2.42137778 C12.6978599,2.94054757 9.52037928,4.78160696 7.34435678,7.45204167 Z M14.4369854,24.2020417 C15.3390736,26.3803928 16.5873484,28.5652844 18.1822082,30.72766 C18.2741549,30.7295082 18.3663105,30.7304438 18.4586667,30.7304583 C18.5825767,30.7304583 18.706118,30.7288772 18.8292715,30.7257338 C20.4239916,28.5638563 21.6722776,26.3796384 22.574528,24.2020417 L14.4369854,24.2020417 Z M30.4437279,24.2020417 L23.9203983,24.2020417 C23.0828287,26.3376235 21.9302321,28.4760688 20.4629319,30.5906468 C24.6448599,30.00215 28.2451962,27.5989223 30.4437279,24.2020417 Z M6.6491849,24.2020417 C8.86201345,27.6049841 12.4317756,30.020863 16.5522815,30.5978173 C15.0831234,28.4810079 13.929325,26.340124 13.0912098,24.202039 L6.6491849,24.2020417 Z"></path>
  </g>
</svg>
