<?xml version="1.0" encoding="UTF-8"?>
<svg width="36px" height="33px" viewBox="0 0 36 33" version="1.1" xmlns="http://www.w3.org/2000/svg" xmlns:xlink="http://www.w3.org/1999/xlink">
  <g id="justice" fill-rule="nonzero" fill="#1E1E1E">
      <path d="M19.8097826,14.0327239 L16.9871443,16.8553622 L17.2188819,17.0870998 C18.0664655,17.9337875 17.9610221,19.1394271 17.1625702,19.9362837 C16.3650069,20.7322535 15.1592015,20.8377678 14.313493,19.9929561 L8.24827565,13.9277387 C7.4014646,13.0809277 7.50749124,11.8760133 8.30597963,11.079652 C9.10333584,10.28442 10.3084647,10.178477 11.1538983,11.0221161 L11.3858696,11.2540874 L17.9150296,4.72492741 L17.6830583,4.4929561 C16.8362472,3.64614505 16.9422739,2.44123065 17.7407622,1.64486944 C18.5381184,0.849637388 19.7432473,0.743694395 20.5886809,1.58733349 L26.6536645,7.65231724 C27.5012481,8.4990049 27.3958048,9.70464447 26.5973528,10.5015011 C25.7997895,11.2974709 24.5939841,11.4029852 23.7482757,10.5581735 L23.5163043,10.3262022 L20.6936661,13.1488405 L34.0669417,26.5221161 C34.6561974,27.1113718 33.7723139,27.9952552 33.1830583,27.4059996 L19.8097826,14.0327239 Z M3.34782609,28.6089922 L3.34782609,27.7848839 C3.34782609,26.6966849 4.23184267,25.8120578 5.32065217,25.8120578 L13.4076087,25.8120578 C14.4973977,25.8120578 15.3804348,26.6963154 15.3804348,27.7848839 L15.3804348,28.6088307 C16.1637644,28.8704334 16.7282609,29.6101801 16.7282609,30.4805361 L16.7282609,31.8283622 C16.7282609,32.1735402 16.4484388,32.4533622 16.1032609,32.4533622 L2.625,32.4533622 C2.27982203,32.4533622 2,32.1735402 2,31.8283622 L2,30.4805361 C2,29.610615 2.56494147,28.8707891 3.34782609,28.6089922 Z M15.4782609,30.4805361 C15.4782609,30.0819373 15.1544811,29.75771 14.7554348,29.75771 L3.97282609,29.75771 C3.57456577,29.75771 3.25,30.0824999 3.25,30.4805361 L3.25,31.2033622 L15.4782609,31.2033622 L15.4782609,30.4805361 Z M14.1304348,27.7848839 C14.1304348,27.3862852 13.806655,27.0620578 13.4076087,27.0620578 L5.32065217,27.0620578 C4.92239186,27.0620578 4.59782609,27.3868478 4.59782609,27.7848839 L4.59782609,28.50771 L14.1304348,28.50771 L14.1304348,27.7848839 Z M16.1032609,15.9714787 L22.6324209,9.44231871 L18.798913,5.60881088 L12.269753,12.1379709 L16.1032609,15.9714787 Z M10.9439278,12.5799126 L10.2704847,11.906469 C9.95132828,11.5879902 9.52920512,11.6250991 9.18868342,11.9647136 C8.84848865,12.3040021 8.81159339,12.7232895 9.13215913,13.0438552 L15.197142,19.1088382 C15.5169201,19.4282772 15.9390707,19.3913368 16.2795711,19.0515168 C16.6197857,18.7119819 16.6565037,18.292149 16.3352322,17.971217 L10.9439278,12.5799126 Z M23.9582461,9.00037697 L24.6319246,9.67405563 C24.9517027,9.9934946 25.3738533,9.95655418 25.7143537,9.61673417 C26.0545684,9.27719924 26.0912863,8.85736638 25.7700148,8.53643436 L19.7052673,2.47168637 C19.3861109,2.15320759 18.9639877,2.19031647 18.623466,2.52993103 C18.2832713,2.86921951 18.246376,3.28850689 18.5669417,3.60907263 L23.9582461,9.00037697 Z"></path>
  </g>
</svg>
