<?xml version="1.0" encoding="UTF-8"?>
<svg width="36px" height="33px" viewBox="0 0 36 33" version="1.1" xmlns="http://www.w3.org/2000/svg" xmlns:xlink="http://www.w3.org/1999/xlink">
  <g id="podcasts" fill-rule="nonzero" fill="#000000">
    <path d="M16.8716555,29.8890898 L16.8716555,25.2631039 C12.4617616,24.8839005 9,21.2069238 9,16.7250061 C9,16.3798281 9.27982203,16.1000061 9.625,16.1000061 C9.97017797,16.1000061 10.25,16.3798281 10.25,16.7250061 C10.25,20.7669563 13.5509444,24.0453477 17.625,24.0453477 C21.6990556,24.0453477 25,20.7669563 25,16.7250061 C25,16.3798281 25.279822,16.1000061 25.625,16.1000061 C25.970178,16.1000061 26.25,16.3798281 26.25,16.7250061 C26.25,21.2935305 22.6531584,25.0257047 18.1216555,25.2813744 L18.1216555,29.8890898 L22.4990003,29.8890898 C22.8441783,29.8890898 23.1240003,30.1689119 23.1240003,30.5140898 C23.1240003,30.8592678 22.8441783,31.1390898 22.4990003,31.1390898 L12.9583333,31.1390898 C12.6131554,31.1390898 12.3333333,30.8592678 12.3333333,30.5140898 C12.3333333,30.1689119 12.6131554,29.8890898 12.9583333,29.8890898 L16.8716555,29.8890898 Z M13.4294872,13.7426367 L14.650641,13.7426367 C14.995819,13.7426367 15.275641,14.0224588 15.275641,14.3676367 C15.275641,14.7128147 14.995819,14.9926367 14.650641,14.9926367 L13.4294872,14.9926367 L13.4294872,16.0296666 C13.4294872,18.3453907 15.3139623,20.2062222 17.6670513,20.2062222 C20.0201402,20.2062222 21.9046154,18.3453907 21.9046154,16.0296666 L21.9046154,14.9926367 L20.7019231,14.9926367 C20.3567451,14.9926367 20.0769231,14.7128147 20.0769231,14.3676367 C20.0769231,14.0224588 20.3567451,13.7426367 20.7019231,13.7426367 L21.9046154,13.7426367 L21.9046154,11.5143759 L20.7019231,11.5143759 C20.3567451,11.5143759 20.0769231,11.2345538 20.0769231,10.8893759 C20.0769231,10.5441979 20.3567451,10.2643759 20.7019231,10.2643759 L21.9046154,10.2643759 L21.9046154,8.03611501 L20.7019231,8.03611501 C20.3567451,8.03611501 20.0769231,7.75629298 20.0769231,7.41111501 C20.0769231,7.06593704 20.3567451,6.78611501 20.7019231,6.78611501 L21.9046154,6.78611501 L21.9046154,6.42655554 C21.9046154,4.11083145 20.0201402,2.25 17.6670513,2.25 C15.3139623,2.25 13.4294872,4.11083145 13.4294872,6.42655554 L13.4294872,6.78611501 L14.650641,6.78611501 C14.995819,6.78611501 15.275641,7.06593704 15.275641,7.41111501 C15.275641,7.75629298 14.995819,8.03611501 14.650641,8.03611501 L13.4294872,8.03611501 L13.4294872,10.2643759 L14.650641,10.2643759 C14.995819,10.2643759 15.275641,10.5441979 15.275641,10.8893759 C15.275641,11.2345538 14.995819,11.5143759 14.650641,11.5143759 L13.4294872,11.5143759 L13.4294872,13.7426367 Z M23.1546154,14.2162415 C23.1666757,14.2647168 23.1730769,14.3154292 23.1730769,14.3676367 C23.1730769,14.4198443 23.1666757,14.4705567 23.1546154,14.519032 L23.1546154,16.0296666 C23.1546154,19.0393041 20.706988,21.4562222 17.6670513,21.4562222 C14.6271146,21.4562222 12.1794872,19.0393041 12.1794872,16.0296666 L12.1794872,6.42655554 C12.1794872,3.41691803 14.6271146,1 17.6670513,1 C20.706988,1 23.1546154,3.41691803 23.1546154,6.42655554 L23.1546154,7.25971978 C23.1666757,7.30819508 23.1730769,7.3589075 23.1730769,7.41111501 C23.1730769,7.46332251 23.1666757,7.51403494 23.1546154,7.56251024 L23.1546154,10.7379806 C23.1666757,10.7864559 23.1730769,10.8371684 23.1730769,10.8893759 C23.1730769,10.9415834 23.1666757,10.9922958 23.1546154,11.0407711 L23.1546154,14.2162415 Z M17.0842105,5.14342394 C17.0842105,4.79824597 17.3640326,4.51842394 17.7092105,4.51842394 C18.0543885,4.51842394 18.3342105,4.79824597 18.3342105,5.14342394 L18.3342105,18.3198945 C18.3342105,18.6650725 18.0543885,18.9448945 17.7092105,18.9448945 C17.3640326,18.9448945 17.0842105,18.6650725 17.0842105,18.3198945 L17.0842105,5.14342394 Z"></path>
  </g>
</svg>
