<?xml version="1.0" encoding="UTF-8"?>
<svg width="36px" height="33px" viewBox="0 0 36 33" version="1.1" xmlns="http://www.w3.org/2000/svg" xmlns:xlink="http://www.w3.org/1999/xlink">
  <g id="teams" fill-rule="nonzero" fill="#1E1E1E">
    <path d="M17.9576581,8.22163906 C19.4894647,8.21861192 20.8529985,7.25030532 21.3606127,5.80504815 C26.8408512,7.29584924 30.6491824,12.2649932 30.6641354,17.9443663 C30.6641354,18.333476 30.9795711,18.6489118 31.3686809,18.6489118 C31.7577906,18.6489118 32.0732263,18.333476 32.0732263,17.9443663 C32.0556918,11.5636468 27.7350883,5.99824628 21.5578854,4.39947996 C21.4427261,2.43557367 19.7766173,0.925268901 17.8108683,1.00286035 C15.8451193,1.0804518 14.3032372,2.71738142 14.3432325,4.68425457 C14.3832277,6.65112771 15.9903798,8.2240235 17.9576581,8.22163906 Z M17.9576581,2.40913906 C19.173626,2.40913906 20.1593627,3.39487576 20.1593627,4.6108436 C20.1593627,5.82681145 19.173626,6.81254815 17.9576581,6.81254815 C16.7416903,6.81254815 15.7559536,5.82681145 15.7559536,4.6108436 C15.755952,3.39430459 16.7411207,2.40755968 17.9576581,2.40561633 L17.9576581,2.40913906 Z M7.54447631,21.2381163 C7.02261559,21.0984132 6.47600517,21.0779454 5.94515813,21.17823 C4.46378889,15.6355765 6.92921341,9.79397065 11.9337945,6.98868451 C12.2723199,6.79412965 12.3890311,6.36198269 12.1944763,6.02345725 C11.9999214,5.68493181 11.5677745,5.56822058 11.229249,5.76277542 C5.62028953,8.92893396 2.89453802,15.5128959 4.6241354,21.7172072 C3.43632302,22.4990251 2.81865727,23.9057223 3.04688247,25.3093072 C3.27510766,26.7128922 4.30663247,27.8514282 5.68095358,28.2166391 C5.98774564,28.2986411 6.30395967,28.3400924 6.62152176,28.3399345 C8.43607387,28.3402726 9.96902509,26.9939059 10.2028783,25.1944859 C10.4367315,23.395066 9.29883845,21.7015955 7.54447631,21.2381163 Z M8.73868085,25.2962981 C8.48525266,26.2614583 7.61439307,26.9354953 6.61652094,26.9388297 C5.61864881,26.9421641 4.74330411,26.273962 4.48343146,25.3105171 C4.22355881,24.3470722 4.64414512,23.3293151 5.50833995,22.8303891 L5.50833995,22.8303891 C6.27780087,22.3861558 7.23886424,22.4479468 7.94510152,22.9870592 C8.65133881,23.5261717 8.96432799,24.4369398 8.73868085,25.2962981 Z M33.1969763,23.5595936 C32.8102344,22.1285241 31.5881087,21.0792265 30.1149998,20.9134577 C28.6418909,20.747689 27.217128,21.4991326 26.5220096,22.8084605 C25.8268911,24.1177884 26.0026622,25.7189509 26.9652718,26.8462981 C22.8051986,30.9940378 16.3278466,31.7091936 11.3631127,28.5689118 C11.034315,28.3607381 10.5990136,28.4585232 10.39084,28.7873209 C10.1826663,29.1161186 10.2804513,29.5514199 10.609249,29.7595936 C16.1863843,33.290271 23.4731936,32.4383562 28.085499,27.7164118 C28.5849232,27.9726231 29.1376073,28.1077773 29.6989081,28.1109572 C30.8235212,28.1121426 31.8846033,27.5897667 32.5694914,26.6977553 C33.2543794,25.8057439 33.4850207,24.6457541 33.1934536,23.5595936 L33.1969763,23.5595936 Z M31.6152718,25.59573 C31.0890713,26.5048747 29.9939048,26.9156708 28.9995997,26.5768665 C28.0052945,26.2380622 27.3888154,25.2440317 27.5272142,24.2027455 C27.665613,23.1614594 28.5203386,22.3629688 29.5686224,22.2956478 C30.6169062,22.2283268 31.5667478,22.9109278 31.8372036,23.9259572 C31.9870906,24.4899873 31.9072845,25.0904334 31.6152718,25.59573 Z"></path>
  </g>
</svg>
