<?xml version="1.0" encoding="UTF-8"?>
<svg width="36px" height="33px" viewBox="0 0 36 33" version="1.1" xmlns="http://www.w3.org/2000/svg" xmlns:xlink="http://www.w3.org/1999/xlink">
  <g id="webinars" fill-rule="nonzero" fill="#000000">
    <path d="M27.576899,26.9885047 L31.9976416,26.9885047 C32.9670768,26.9885047 33.75,26.2085262 33.75,25.2480505 L33.75,7.9904542 C33.75,7.03681511 32.96205,6.25 31.9976416,6.25 L4.00235843,6.25 C3.03292325,6.25 2.25,7.02997856 2.25,7.9904542 L2.25,25.2480505 C2.25,26.2016896 3.03795,26.9885047 4.00235843,26.9885047 L8.70279246,26.9885047 C9.94169959,22.4715067 13.5986488,19.4745086 18.0396502,19.4745086 C22.5869336,19.4745086 26.390806,22.4728901 27.576899,26.9885047 Z M26.2788212,26.9885047 C25.1460364,23.1958582 21.9061932,20.7245086 18.0396502,20.7245086 C14.2883164,20.7245086 11.1804885,23.1853007 10.0046726,26.9885047 L26.2788212,26.9885047 Z M1,7.9904542 C1,6.33887195 2.34331243,5 4.00235843,5 L31.9976416,5 C33.6557983,5 35,6.34984547 35,7.9904542 L35,25.2480505 C35,26.8996328 33.6566876,28.2385047 31.9976416,28.2385047 L4.00235843,28.2385047 C2.34420165,28.2385047 1,26.8886593 1,25.2480505 L1,7.9904542 Z M8.5254623,30.727887 C8.18028434,30.727887 7.9004623,30.4480649 7.9004623,30.102887 C7.9004623,29.757709 8.18028434,29.477887 8.5254623,29.477887 L27.7282508,29.477887 C28.0734288,29.477887 28.3532508,29.757709 28.3532508,30.102887 C28.3532508,30.4480649 28.0734288,30.727887 27.7282508,30.727887 L8.5254623,30.727887 Z M18.0435277,18.2332836 C15.3913957,18.2332836 13.2398649,16.0949476 13.2398649,13.4552475 C13.2398649,10.8155474 15.3913957,8.6772113 18.0435277,8.6772113 C20.6956597,8.6772113 22.8471906,10.8155474 22.8471906,13.4552475 C22.8471906,16.0949476 20.6956597,18.2332836 18.0435277,18.2332836 Z M18.0435277,16.9832836 C20.0070193,16.9832836 21.5971906,15.4028644 21.5971906,13.4552475 C21.5971906,11.5076305 20.0070193,9.9272113 18.0435277,9.9272113 C16.0800362,9.9272113 14.4898649,11.5076305 14.4898649,13.4552475 C14.4898649,15.4028644 16.0800362,16.9832836 18.0435277,16.9832836 Z"></path>
  </g>
</svg>
